<svg width="20" height="16" viewBox="0 0 20 16" fill="none" xmlns="http://www.w3.org/2000/svg">
<path d="M16.9309 1.64162C15.6562 1.05674 14.2892 0.625801 12.86 0.378965C12.8339 0.3742 12.8079 0.386114 12.7945 0.409903C12.6187 0.722598 12.424 1.13049 12.2876 1.45111C10.7504 1.22096 9.22101 1.22096 7.7153 1.45111C7.5789 1.12338 7.3771 0.722598 7.2005 0.409903C7.1871 0.386895 7.16109 0.374981 7.13507 0.378965C5.70663 0.624981 4.33968 1.05592 3.06413 1.64162C3.05308 1.64639 3.04362 1.65432 3.03733 1.66463C0.444522 5.53826 -0.265791 9.3167 0.0826466 13.0483C0.0842091 13.0665 0.0944826 13.084 0.108662 13.0951C1.81933 14.3514 3.47644 15.114 5.10273 15.6196C5.12874 15.6275 5.15632 15.618 5.17288 15.5966C5.55757 15.0712 5.9005 14.5173 6.19452 13.9347C6.21187 13.9006 6.1953 13.8601 6.15984 13.8467C5.61589 13.6403 5.09796 13.3887 4.59972 13.1031C4.5603 13.0801 4.55714 13.0237 4.59343 12.9967C4.69827 12.9181 4.80316 12.8364 4.90327 12.7538C4.9214 12.7388 4.94663 12.7356 4.96792 12.7451C8.24105 14.2395 11.7846 14.2395 15.0191 12.7451C15.0404 12.7348 15.0656 12.738 15.0845 12.753C15.1847 12.8356 15.2895 12.9181 15.3952 12.9967C15.4314 13.0237 15.429 13.08 15.3896 13.103C14.8914 13.3943 14.3735 13.6403 13.8287 13.8458C13.7933 13.8593 13.7775 13.9006 13.7949 13.9347C14.0952 14.5164 14.4382 15.0704 14.8157 15.5958C14.8315 15.618 14.8599 15.6275 14.8859 15.6195C16.5201 15.114 18.1772 14.3513 19.8878 13.0951C19.9028 13.084 19.9123 13.0673 19.9139 13.049C20.3309 8.73494 19.2154 4.98748 16.9568 1.66541C16.9514 1.65432 16.9419 1.64639 16.9309 1.64162ZM6.68339 10.7761C5.69796 10.7761 4.88597 9.87143 4.88597 8.76033C4.88597 7.64928 5.68218 6.74455 6.68339 6.74455C7.69241 6.74455 8.49656 7.65721 8.48077 8.76033C8.48077 9.87143 7.68452 10.7761 6.68339 10.7761ZM13.329 10.7761C12.3436 10.7761 11.5316 9.87143 11.5316 8.76033C11.5316 7.64928 12.3278 6.74455 13.329 6.74455C14.338 6.74455 15.1421 7.65721 15.1264 8.76033C15.1264 9.87143 14.3381 10.7761 13.329 10.7761Z" fill="white"/>
</svg>
