<svg width="86" height="86" viewBox="0 0 86 86" fill="none" xmlns="http://www.w3.org/2000/svg">
<path d="M85.7979 17.8249V0.831787L68.8048 0.831787V7.91226H51.8116V0.831787L34.8185 0.831787V7.91226H17.8254V0.831787L0.832275 0.831787L0.832275 17.8249H7.91274V34.818H0.832275L0.832275 51.8112H7.91274V68.8043H0.832275L0.832275 85.7974H17.8254V78.7169H34.8185V85.7974H51.8116V78.7169H68.8048V85.7974H85.7979V68.8043H78.7174V51.8112H85.7979V34.818H78.7174V17.8249H85.7979ZM75.8852 34.818H68.8048V41.8985H56.0599V44.7307H68.8048V51.8112H75.8852V68.8043H68.8048V75.8848H51.8116V68.8043H44.7312V56.0594H41.899V68.8043H34.8185V75.8848H17.8254V68.8043H10.7449V51.8112H17.8254V44.7307H30.5702V41.8985H17.8254V34.818H10.7449V17.8249H17.8254V10.7444H34.8185V17.8249H41.899V30.5698H44.7312V17.8249H51.8116V10.7444H68.8048V17.8249H75.8852V34.818Z" fill="#666666"/>
</svg>
