<svg width="89" height="85" viewBox="0 0 89 85" fill="none" xmlns="http://www.w3.org/2000/svg">
<path d="M87.3818 33.586L74.637 26.5056C74.4217 26.3813 74.1775 26.3159 73.9289 26.3159C73.6804 26.3159 73.4362 26.3813 73.2209 26.5056L65.2058 30.9521L55.9162 25.6701L57.6155 24.7213C57.8396 24.602 58.0274 24.4248 58.1594 24.208C58.2915 23.9913 58.3628 23.7431 58.3661 23.4893V9.32836C58.3656 9.07744 58.2985 8.83113 58.1716 8.61466C58.0447 8.39818 57.8626 8.21931 57.6439 8.09636L44.899 1.01589C44.6837 0.891604 44.4395 0.826172 44.191 0.826172C43.9424 0.826172 43.6982 0.891604 43.4829 1.01589L30.7381 8.09636C30.5246 8.22291 30.3481 8.40334 30.2264 8.61956C30.1046 8.83578 30.0418 9.08021 30.0442 9.32836V23.4893C30.0446 23.7402 30.1117 23.9865 30.2386 24.203C30.3655 24.4195 30.5477 24.5983 30.7664 24.7213L32.4657 25.6701L23.1761 30.9521L15.161 26.5056C14.9458 26.3813 14.7016 26.3159 14.453 26.3159C14.2044 26.3159 13.9602 26.3813 13.7449 26.5056L1.00011 33.586C0.786638 33.7126 0.610174 33.893 0.488392 34.1092C0.366611 34.3255 0.303789 34.5699 0.30622 34.8181L0.30622 48.979C0.306653 49.2299 0.373752 49.4762 0.500651 49.6927C0.627549 49.9092 0.809689 50.088 1.02843 50.211L13.7733 57.2915C13.9885 57.4157 14.2327 57.4812 14.4813 57.4812C14.7299 57.4812 14.9741 57.4157 15.1894 57.2915L18.1632 55.6488L30.0442 62.4036V82.9652C30.0442 83.3408 30.1934 83.701 30.459 83.9666C30.7245 84.2321 31.0847 84.3813 31.4603 84.3813H47.0373V81.5491H32.8764V58.8916H55.5339V73.0526H58.3661V62.4036L70.2754 55.6488L73.2492 57.2915C73.4645 57.4157 73.7087 57.4812 73.9573 57.4812C74.2058 57.4812 74.45 57.4157 74.6653 57.2915L87.4101 50.211C87.6236 50.0844 87.8001 49.904 87.9219 49.6878C88.0436 49.4716 88.1065 49.2271 88.104 48.979V34.8181C88.1036 34.5671 88.0365 34.3208 87.9096 34.1043C87.7827 33.8879 87.6006 33.709 87.3818 33.586ZM44.2051 3.86224L54.0328 9.32836L44.2051 14.7945L34.3774 9.32836L44.2051 3.86224ZM55.5339 11.7357V22.6538L45.6212 28.1624V17.2443L55.5339 11.7357ZM32.8764 11.7357L42.789 17.2443V28.1624L32.8764 22.6538V11.7357ZM13.0511 53.6521L3.13841 48.1435V37.2254L13.0511 42.734V53.6521ZM14.4672 40.2842L4.63947 34.8181L14.4672 29.3519L24.2948 34.8181L14.4672 40.2842ZM15.8833 53.6521V42.734L25.7959 37.2254V48.1435L15.8833 53.6521ZM58.3661 59.1465V57.4755C58.3661 57.1 58.2169 56.7398 57.9513 56.4742C57.6857 56.2086 57.3255 56.0595 56.95 56.0595H31.4603C31.0847 56.0595 30.7245 56.2086 30.459 56.4742C30.1934 56.7398 30.0442 57.1 30.0442 57.4755V59.1465L21.0237 54.0344L27.9059 50.211C28.1246 50.088 28.3068 49.9092 28.4337 49.6927C28.5606 49.4762 28.6277 49.2299 28.6281 48.979V34.8181C28.6277 34.5671 28.5606 34.3208 28.4337 34.1043C28.3068 33.8879 28.1246 33.709 27.9059 33.586L26.065 32.5665L35.3687 27.2844L43.5112 31.8018C43.7265 31.9261 43.9707 31.9915 44.2193 31.9915C44.4679 31.9915 44.7121 31.9261 44.9273 31.8018L53.0699 27.2844L62.3736 32.5665L60.5327 33.586C60.3087 33.7053 60.1208 33.8826 59.9888 34.0993C59.8568 34.316 59.7854 34.5643 59.7822 34.8181V48.979C59.7826 49.2299 59.8497 49.4762 59.9766 49.6927C60.1035 49.9092 60.2856 50.088 60.5044 50.211L67.3866 54.0344L58.3661 59.1465ZM72.527 53.6521L62.6143 48.1435V37.2254L72.527 42.734V53.6521ZM73.9431 40.2842L64.1154 34.8181L73.9431 29.3519L83.7708 34.8181L73.9431 40.2842ZM85.2718 48.1435L75.3592 53.6521V42.734L85.2718 37.2254V48.1435Z" fill="#666666"/>
</svg>
