<svg width="53" height="92" viewBox="0 0 53 92" fill="none" xmlns="http://www.w3.org/2000/svg">
<path fill-rule="evenodd" clip-rule="evenodd" d="M5.4375 9.79326V13.8464L-5.95938 20.4276L-9.75 13.8651C-8.49375 12.3964 -8.23438 10.2401 -9.25313 8.47451C-10.5469 6.23389 -13.4156 5.46514 -15.6562 6.75889C-17.8969 8.05264 -18.6656 10.9214 -17.3719 13.162C-16.3531 14.9276 -14.3531 15.7776 -12.4562 15.4276L-8.66562 21.9901L-20.0625 28.5714L-23.5719 26.5433C-23.2219 24.6464 -24.0719 22.6464 -25.8375 21.6276C-28.0781 20.3339 -30.9469 21.1026 -32.2406 23.3433C-33.5344 25.5839 -32.7656 28.4526 -30.525 29.7464C-28.7594 30.7651 -26.6031 30.5058 -25.1344 29.2495L-21.625 31.2776V44.437H-29.2063C-29.85 42.6183 -31.5844 41.312 -33.625 41.312C-36.2125 41.312 -38.3125 43.412 -38.3125 45.9995C-38.3125 48.587 -36.2125 50.687 -33.625 50.687C-31.5844 50.687 -29.85 49.3808 -29.2063 47.562H-21.625V60.7214L-25.1344 62.7495C-26.6031 61.4933 -28.7594 61.2339 -30.525 62.2526C-32.7656 63.5464 -33.5344 66.4151 -32.2406 68.6558C-30.9469 70.8964 -28.0781 71.6651 -25.8375 70.3714C-24.0719 69.3526 -23.2219 67.3526 -23.5719 65.4558L-20.0625 63.4276L-8.66562 70.0089L-12.4562 76.5714C-14.3531 76.2214 -16.3531 77.0714 -17.3719 78.837C-18.6656 81.0776 -17.8969 83.9464 -15.6562 85.2401C-13.4156 86.5339 -10.5469 85.7651 -9.25313 83.5245C-8.23438 81.7589 -8.49375 79.6026 -9.75 78.1339L-5.95938 71.5714L5.4375 78.1526V82.2058C3.61875 82.8495 2.3125 84.5839 2.3125 86.6245C2.3125 89.212 4.4125 91.312 7 91.312C9.5875 91.312 11.6875 89.212 11.6875 86.6245C11.6875 84.5839 10.3812 82.8495 8.5625 82.2058V78.1526L19.9594 71.5714L23.75 78.1339C22.4938 79.6026 22.2344 81.7589 23.2531 83.5245C24.5469 85.7651 27.4156 86.5339 29.6562 85.2401C31.8969 83.9464 32.6656 81.0776 31.3719 78.837C30.3531 77.0714 28.3531 76.2214 26.4563 76.5714L22.6656 70.0089L34.0625 63.4276L37.5719 65.4558C37.2219 67.3526 38.0719 69.3526 39.8375 70.3714C42.0781 71.6651 44.9469 70.8964 46.2406 68.6558C47.5344 66.4151 46.7656 63.5464 44.525 62.2526C42.7594 61.2339 40.6031 61.4933 39.1344 62.7495L35.625 60.7214V47.562H43.2063C43.85 49.3808 45.5844 50.687 47.625 50.687C50.2125 50.687 52.3125 48.587 52.3125 45.9995C52.3125 43.412 50.2125 41.312 47.625 41.312C45.5844 41.312 43.85 42.6183 43.2063 44.437H35.625V31.2776L39.1344 29.2495C40.6031 30.5058 42.7594 30.7651 44.525 29.7464C46.7656 28.4526 47.5344 25.5839 46.2406 23.3433C44.9469 21.1026 42.0781 20.3339 39.8375 21.6276C38.0719 22.6464 37.2219 24.6464 37.5719 26.5433L34.0625 28.5714L22.6656 21.9901L26.4563 15.4276C28.3531 15.7776 30.3531 14.9276 31.3719 13.162C32.6656 10.9214 31.8969 8.05264 29.6562 6.75889C27.4156 5.46514 24.5469 6.23389 23.2531 8.47451C22.2344 10.2401 22.4938 12.3964 23.75 13.8651L19.9594 20.4276L8.5625 13.8464V9.79326C10.3812 9.14951 11.6875 7.41514 11.6875 5.37451C11.6875 2.78701 9.5875 0.687012 7 0.687012C4.4125 0.687012 2.3125 2.78701 2.3125 5.37451C2.3125 7.41514 3.61875 9.14951 5.4375 9.79326ZM7 88.187C6.1375 88.187 5.4375 87.487 5.4375 86.6245C5.4375 85.762 6.1375 85.062 7 85.062C7.8625 85.062 8.5625 85.762 8.5625 86.6245C8.5625 87.487 7.8625 88.187 7 88.187ZM28.6656 80.3995C29.0969 81.1464 28.8406 82.1026 28.0938 82.5339C27.3469 82.9651 26.3906 82.7089 25.9594 81.962C25.5281 81.2151 25.7844 80.2589 26.5312 79.8276C27.2781 79.3964 28.2344 79.6526 28.6656 80.3995ZM-14.6656 80.3995C-14.2344 79.6526 -13.2781 79.3964 -12.5312 79.8276C-11.7844 80.2589 -11.5281 81.2151 -11.9594 81.962C-12.3906 82.7089 -13.3469 82.9651 -14.0938 82.5339C-14.8406 82.1026 -15.0969 81.1464 -14.6656 80.3995ZM7 16.5526L32.5 31.2776V60.7214L7 75.4464L-18.5 60.7214V31.2776L7 16.5526ZM7.78125 19.6464C7.29688 19.3683 6.70312 19.3683 6.21875 19.6464L-15.4313 32.1464C-15.9156 32.4245 -16.2125 32.9401 -16.2125 33.4995V58.4995C-16.2125 59.0589 -15.9156 59.5745 -15.4313 59.8526L6.21875 72.3526C6.70312 72.6308 7.29688 72.6308 7.78125 72.3526L29.4313 59.8526C29.9156 59.5745 30.2125 59.0589 30.2125 58.4995V33.4995C30.2125 32.9401 29.9156 32.4245 29.4313 32.1464L7.78125 19.6464ZM43.5344 67.0933C43.1031 67.8401 42.1469 68.0964 41.4 67.6651C40.6531 67.2339 40.3969 66.2776 40.8281 65.5308C41.2594 64.7839 42.2156 64.5276 42.9625 64.9589C43.7094 65.3901 43.9656 66.3464 43.5344 67.0933ZM-29.5344 67.0933C-29.9656 66.3464 -29.7094 65.3901 -28.9625 64.9589C-28.2156 64.5276 -27.2594 64.7839 -26.8281 65.5308C-26.3969 66.2776 -26.6531 67.2339 -27.4 67.6651C-28.1469 68.0964 -29.1031 67.8401 -29.5344 67.0933ZM-7.0625 52.2495V46.3683L-3.77187 52.9495C-3.45 53.5964 -2.72187 53.937 -2.01562 53.7714C-1.30938 53.6026 -0.8125 52.9745 -0.8125 52.2495V39.7495C-0.8125 38.887 -1.5125 38.187 -2.375 38.187C-3.2375 38.187 -3.9375 38.887 -3.9375 39.7495V45.6308L-7.22813 39.0495C-7.55 38.4026 -8.27812 38.062 -8.98438 38.2276C-9.69062 38.3964 -10.1875 39.0245 -10.1875 39.7495V52.2495C-10.1875 53.112 -9.4875 53.812 -8.625 53.812C-7.7625 53.812 -7.0625 53.112 -7.0625 52.2495ZM17.9375 41.312V52.2495C17.9375 53.112 18.6375 53.812 19.5 53.812C20.3625 53.812 21.0625 53.112 21.0625 52.2495V41.312H22.625C23.4875 41.312 24.1875 40.612 24.1875 39.7495C24.1875 38.887 23.4875 38.187 22.625 38.187H16.375C15.5125 38.187 14.8125 38.887 14.8125 39.7495C14.8125 40.612 15.5125 41.312 16.375 41.312H17.9375ZM5.4375 47.562H7C7.8625 47.562 8.5625 46.862 8.5625 45.9995C8.5625 45.137 7.8625 44.437 7 44.437H5.4375V41.312H10.125C10.9875 41.312 11.6875 40.612 11.6875 39.7495C11.6875 38.887 10.9875 38.187 10.125 38.187H3.875C3.0125 38.187 2.3125 38.887 2.3125 39.7495V52.2495C2.3125 53.112 3.0125 53.812 3.875 53.812C4.7375 53.812 5.4375 53.112 5.4375 52.2495V47.562ZM-33.625 44.437C-32.7625 44.437 -32.0625 45.137 -32.0625 45.9995C-32.0625 46.862 -32.7625 47.562 -33.625 47.562C-34.4875 47.562 -35.1875 46.862 -35.1875 45.9995C-35.1875 45.137 -34.4875 44.437 -33.625 44.437ZM47.625 44.437C48.4875 44.437 49.1875 45.137 49.1875 45.9995C49.1875 46.862 48.4875 47.562 47.625 47.562C46.7625 47.562 46.0625 46.862 46.0625 45.9995C46.0625 45.137 46.7625 44.437 47.625 44.437ZM-29.5344 24.9058C-29.1031 24.1589 -28.1469 23.9026 -27.4 24.3339C-26.6531 24.7651 -26.3969 25.7214 -26.8281 26.4683C-27.2594 27.2151 -28.2156 27.4714 -28.9625 27.0401C-29.7094 26.6089 -29.9656 25.6526 -29.5344 24.9058ZM43.5344 24.9058C43.9656 25.6526 43.7094 26.6089 42.9625 27.0401C42.2156 27.4714 41.2594 27.2151 40.8281 26.4683C40.3969 25.7214 40.6531 24.7651 41.4 24.3339C42.1469 23.9026 43.1031 24.1589 43.5344 24.9058ZM-11.9594 10.037C-11.5281 10.7839 -11.7844 11.7401 -12.5312 12.1714C-13.2781 12.6026 -14.2344 12.3464 -14.6656 11.5995C-15.0969 10.8526 -14.8406 9.89639 -14.0938 9.46514C-13.3469 9.03389 -12.3906 9.29014 -11.9594 10.037ZM25.9594 10.037C26.3906 9.29014 27.3469 9.03389 28.0938 9.46514C28.8406 9.89639 29.0969 10.8526 28.6656 11.5995C28.2344 12.3464 27.2781 12.6026 26.5312 12.1714C25.7844 11.7401 25.5281 10.7839 25.9594 10.037ZM7 3.81201C7.8625 3.81201 8.5625 4.51201 8.5625 5.37451C8.5625 6.23701 7.8625 6.93701 7 6.93701C6.1375 6.93701 5.4375 6.23701 5.4375 5.37451C5.4375 4.51201 6.1375 3.81201 7 3.81201Z" fill="#666666"/>
</svg>
