<svg width="163" height="61" viewBox="0 0 163 61" fill="none" xmlns="http://www.w3.org/2000/svg">
<path d="M154.847 7.33364C155.865 6.01775 157.871 5.57931 159.328 6.35434C160.784 7.12937 161.14 8.8244 160.122 10.1403L154.847 7.33364ZM64.5663 7.84811L64.5489 5.09248L64.5498 5.09241L64.5663 7.84811ZM79.4997 52.212L77.3917 50.2698L77.392 50.2696L79.4997 52.212ZM0.106766 3.06519C0.123166 1.5416 1.57703 0.22179 3.35407 0.117314C5.1311 0.0128354 6.55836 1.16324 6.54196 2.68683L0.106766 3.06519ZM162.555 18.4515C162.701 19.9591 161.384 21.3786 159.613 21.6221C157.842 21.8655 156.288 20.8406 156.141 19.333L162.555 18.4515ZM158.276 7.84068L158.264 5.0847C159.943 4.96713 161.345 5.97533 161.483 7.39994L158.276 7.84068ZM145.075 11.2775C143.307 11.2394 142.021 9.97079 142.204 8.4441C142.386 6.91742 143.967 5.71073 145.734 5.74889L145.075 11.2775ZM157.484 8.73696C160.122 10.1403 160.121 10.1411 160.12 10.1422C160.12 10.1428 160.119 10.144 160.118 10.1452C160.116 10.1475 160.114 10.1505 160.111 10.1543C160.105 10.1617 160.097 10.172 160.087 10.185C160.067 10.211 160.038 10.2481 160 10.2957C159.925 10.391 159.816 10.5288 159.673 10.706C159.388 11.0605 158.97 11.573 158.427 12.2193C157.341 13.5116 155.755 15.341 153.733 17.513C149.697 21.8503 143.895 27.5867 136.854 33.1458C122.954 44.1203 103.345 55.0856 82.6863 51.8148L84.3212 46.3729C101.756 49.1334 119.137 39.9203 132.704 29.2084C139.397 23.9244 144.947 18.4408 148.83 14.2688C150.768 12.1861 152.283 10.4386 153.309 9.21753C153.822 8.60721 154.212 8.129 154.471 7.80689C154.601 7.64585 154.697 7.52389 154.76 7.444C154.792 7.40406 154.815 7.37464 154.829 7.35612C154.837 7.34686 154.842 7.34032 154.845 7.33656C154.846 7.33468 154.847 7.33349 154.847 7.333C154.848 7.33276 154.847 7.33292 154.848 7.33279C154.847 7.33313 154.847 7.33364 157.484 8.73696ZM82.6863 51.8148C62.4995 48.6186 52.5762 37.8716 50.2507 27.3792C49.1032 22.2018 49.7989 17.005 52.1784 12.8829C54.5898 8.70542 58.8657 5.49782 64.5489 5.09248L64.5836 10.6037C61.8181 10.801 59.4751 12.2965 57.9012 15.0232C56.2953 17.8052 55.639 21.7138 56.5764 25.9432C58.4207 34.2646 66.4149 43.5378 84.3212 46.3729L82.6863 51.8148ZM64.5498 5.09241C69.7994 4.71928 75.0005 6.53411 79.3458 9.42369C83.7292 12.3387 87.5155 16.5181 89.9489 21.349C94.8413 31.0612 94.3805 43.8152 81.6075 54.1545L77.392 50.2696C87.5824 42.0208 88.1021 31.9925 84.0104 23.8696C81.9518 19.7828 78.7549 16.2815 75.1664 13.8952C71.5398 11.4835 67.7803 10.3765 64.5827 10.6038L64.5498 5.09241ZM81.6078 54.1542C74.9681 59.53 66.2698 61.4598 57.3543 60.8614C48.4602 60.2643 39.1254 57.1553 30.6852 52.1956C13.8314 42.2917 -0.125016 24.5932 0.106766 3.06519L6.54196 2.68683C6.33272 22.1205 18.9861 38.383 34.5913 47.5531C42.3807 52.1304 50.7377 54.8367 58.3475 55.3475C65.9359 55.8569 72.5535 54.187 77.3917 50.2698L81.6078 54.1542ZM156.141 19.333L155.069 8.28142L161.483 7.39994L162.555 18.4515L156.141 19.333ZM158.276 7.84068C158.289 10.5967 158.289 10.5967 158.289 10.5967C158.288 10.5967 158.288 10.5967 158.288 10.5967C158.288 10.5967 158.287 10.5968 158.287 10.5968C158.285 10.5969 158.283 10.5971 158.281 10.5972C158.275 10.5976 158.268 10.5981 158.258 10.5988C158.237 10.6002 158.208 10.6023 158.169 10.605C158.091 10.6104 157.978 10.6182 157.832 10.6282C157.541 10.6481 157.124 10.6764 156.615 10.7102C155.598 10.7778 154.215 10.8675 152.752 10.9555C149.918 11.1261 146.513 11.3086 145.075 11.2775L145.734 5.74889C146.792 5.77173 149.823 5.61797 152.801 5.43876C154.244 5.35195 155.61 5.26337 156.617 5.19645C157.12 5.16301 157.533 5.13501 157.819 5.1154C157.962 5.1056 158.074 5.09789 158.149 5.09265C158.187 5.09003 158.216 5.08803 158.235 5.08668C158.245 5.08601 158.252 5.08551 158.257 5.08518C158.259 5.08501 158.261 5.08488 158.262 5.0848C158.263 5.08476 158.263 5.08473 158.264 5.08472C158.264 5.08471 158.264 5.0847 158.264 5.0847C158.264 5.0847 158.264 5.0847 158.276 7.84068Z" fill="url(#paint0_linear_108_3387)"/>
<defs>
<linearGradient id="paint0_linear_108_3387" x1="103.706" y1="-19.5159" x2="61.5667" y2="64.5423" gradientUnits="userSpaceOnUse">
<stop stop-color="#692ADC"/>
<stop offset="1" stop-color="#80FFDB"/>
</linearGradient>
</defs>
</svg>
