<svg width="241" height="140" viewBox="0 0 241 140" fill="none" xmlns="http://www.w3.org/2000/svg">
<path d="M233.407 114.225C234.898 113.483 236.933 113.933 237.952 115.228C238.971 116.524 238.589 118.175 237.098 118.917L233.407 114.225ZM98.3093 52.0636L99.4727 49.622L99.4736 49.6224L98.3093 52.0636ZM91.4171 125.277L90.2992 122.671L90.2996 122.671L91.4171 125.277ZM7.85896 2.15869C8.49811 0.808975 10.3856 0.231815 12.0748 0.86959C13.7639 1.50737 14.6152 3.11855 13.976 4.46827L7.85896 2.15869ZM234.526 133.197C234.045 134.6 232.244 135.323 230.503 134.812C228.762 134.301 227.741 132.749 228.222 131.347L234.526 133.197ZM237.01 115.836L238.178 113.396C239.752 113.996 240.611 115.453 240.162 116.761L237.01 115.836ZM216.036 110.334C214.427 109.553 213.786 107.889 214.605 106.617C215.425 105.344 217.394 104.946 219.003 105.727L216.036 110.334ZM235.252 116.571C237.098 118.917 237.097 118.917 237.095 118.918C237.094 118.918 237.092 118.919 237.091 118.92C237.087 118.922 237.082 118.924 237.076 118.927C237.064 118.934 237.046 118.942 237.024 118.953C236.979 118.975 236.915 119.007 236.831 119.048C236.662 119.129 236.415 119.248 236.094 119.401C235.451 119.705 234.508 120.144 233.295 120.687C230.868 121.774 227.353 123.282 222.974 124.98C214.225 128.373 201.985 132.543 188.057 135.623C160.414 141.736 125.059 143.782 97.4728 125.633L101.29 121.508C126.142 137.858 158.722 136.404 185.905 130.393C199.39 127.411 211.286 123.362 219.819 120.052C224.082 118.399 227.495 116.934 229.835 115.886C231.005 115.362 231.906 114.943 232.511 114.656C232.814 114.513 233.042 114.403 233.192 114.33C233.267 114.294 233.323 114.266 233.359 114.249C233.377 114.24 233.39 114.233 233.398 114.229C233.402 114.227 233.405 114.226 233.406 114.225C233.407 114.225 233.407 114.225 233.408 114.225C233.407 114.225 233.407 114.225 235.252 116.571ZM97.4728 125.633C70.3034 107.758 63.0007 86.3975 66.2824 70.5497C67.9096 62.6915 72.1685 56.1073 78.0221 52.1157C83.9377 48.0818 91.6391 46.6496 99.4727 49.622L97.146 54.5052C92.0811 52.5834 86.9126 53.3301 82.4173 56.3955C77.8599 59.5033 74.1669 64.9389 72.732 71.8686C69.8893 85.5965 76.0209 104.884 101.29 121.508L97.4728 125.633ZM99.4736 49.6224C106.883 52.4359 113.067 58.1684 117.461 65.0013C121.881 71.8739 124.671 80.1255 125.102 88.3962C125.967 104.987 117.274 122.098 92.5346 127.882L90.2996 122.671C111.696 117.668 119.343 103.069 118.568 88.1983C118.179 80.7381 115.653 73.321 111.739 67.2335C107.799 61.1064 102.63 56.5875 97.1451 54.5049L99.4736 49.6224ZM92.535 127.882C79.8503 130.849 66.322 127.859 53.8925 121.143C41.4769 114.434 29.9249 103.904 20.8149 91.3048C2.61576 66.1352 -6.2933 32.0453 7.85896 2.15869L13.976 4.46827C0.704556 32.4949 8.98392 64.781 26.3598 88.8119C35.0373 100.813 45.8695 110.589 57.1566 116.688C68.4298 122.779 79.9226 125.098 90.2992 122.671L92.535 127.882ZM228.222 131.347L233.858 114.911L240.162 116.761L234.526 133.197L228.222 131.347ZM237.01 115.836C235.842 118.276 235.842 118.276 235.842 118.276C235.842 118.276 235.842 118.276 235.841 118.276C235.841 118.275 235.84 118.275 235.839 118.275C235.837 118.274 235.834 118.273 235.83 118.271C235.822 118.268 235.811 118.264 235.795 118.258C235.765 118.247 235.72 118.229 235.661 118.207C235.543 118.162 235.37 118.096 235.149 118.011C234.707 117.842 234.072 117.599 233.299 117.301C231.753 116.706 229.652 115.894 227.434 115.026C223.087 113.323 218.037 111.306 216.036 110.334L219.003 105.727C220.661 106.532 225.357 108.417 229.84 110.173C232.038 111.034 234.123 111.84 235.66 112.431C236.428 112.727 237.058 112.968 237.496 113.136C237.715 113.22 237.886 113.285 238.002 113.329C238.06 113.351 238.104 113.368 238.134 113.38C238.149 113.385 238.16 113.389 238.167 113.392C238.171 113.394 238.174 113.395 238.176 113.395C238.177 113.396 238.177 113.396 238.178 113.396C238.178 113.396 238.178 113.396 238.178 113.396C238.178 113.396 238.178 113.396 237.01 115.836Z" fill="url(#paint0_linear_0_1829)"/>
<defs>
<linearGradient id="paint0_linear_0_1829" x1="174.122" y1="39.8146" x2="59.8916" y2="134.311" gradientUnits="userSpaceOnUse">
<stop stop-color="#692ADC"/>
<stop offset="1" stop-color="#80FFDB"/>
</linearGradient>
</defs>
</svg>
