<svg width="20" height="20" viewBox="0 0 20 20" fill="none" xmlns="http://www.w3.org/2000/svg">
<path d="M11.6637 10.0041L19.6554 2.0124C20.1154 1.5524 20.1154 0.808897 19.6554 0.348902C19.1954 -0.111092 18.4519 -0.111092 17.9919 0.348902L10.0002 8.34057L2.00849 0.348902C1.5485 -0.111092 0.804991 -0.111092 0.344996 0.348902C-0.114999 0.808897 -0.114999 1.5524 0.344996 2.0124L8.33666 10.0041L0.344996 17.9957C-0.114999 18.4557 -0.114999 19.1992 0.344996 19.6592C0.574407 19.8886 0.875576 20.0039 1.17674 20.0039C1.47791 20.0039 1.77908 19.8886 2.00849 19.6592L10.0002 11.6676L17.9918 19.6592C18.2212 19.8886 18.5224 20.0039 18.8236 20.0039C19.1247 20.0039 19.4259 19.8886 19.6553 19.6592C20.1153 19.1992 20.1153 18.4557 19.6553 17.9957L11.6637 10.0041Z" fill="white"/>
</svg>
