<svg width="42" height="54" viewBox="0 0 42 54" fill="none" xmlns="http://www.w3.org/2000/svg">
<path d="M8.69779 16.274C8.69779 16.274 7.48496 25.7932 8.53285 28.3226C8.53285 28.3226 8.68845 14.0394 18.9602 2.3021C18.9602 2.3021 19.247 11.5065 25.3061 15.7633C31.3651 20.0201 33.1669 27.1772 33.1669 27.1772C33.1669 27.1772 33.4682 22.1818 30.9715 14.3912C30.9715 14.3912 44.0438 26.1962 39.4448 40.7166C39.4448 40.7166 33.7969 56.7481 14.0321 51.2879C-5.73268 45.8276 5.4224 18.9587 8.69779 16.274Z" fill="#FF8500"/>
<path d="M30.1203 26.834C30.5761 30.8005 28.8529 31.9704 27.4159 32.2808C26.4959 32.4815 25.5392 32.3071 24.6932 31.915C16.4011 28.1397 19.7648 17.2632 19.7648 17.2632C14.8825 22.6314 18.3348 32.8318 18.3348 32.8318C18.3348 32.8318 20.3654 38.6086 17.0907 39.3519C15.4485 39.7291 14.6289 39.1147 14.2235 38.419C13.853 37.7732 13.7982 36.99 14.032 36.281C15.8873 30.5473 13.7452 27.5278 13.7452 27.5278C12.893 30.7987 11.9022 32.9878 11.1656 34.3091C10.1215 36.1872 9.5232 38.2859 9.56847 40.4341C9.75043 48.439 16.6568 51.1568 16.6568 51.1568C28.0241 55.9869 32.2377 45.4078 32.2377 45.4078C37.146 34.1085 30.1203 26.834 30.1203 26.834Z" fill="#FCD870"/>
</svg>
