<svg width="30" height="19" viewBox="0 0 30 19" fill="none" xmlns="http://www.w3.org/2000/svg">
<path fill-rule="evenodd" clip-rule="evenodd" d="M30 9.5C30 9.22009 29.8871 8.95164 29.6862 8.75372C29.4853 8.55579 29.2128 8.44459 28.9286 8.44459H3.65954L10.4027 1.80397C10.5023 1.70584 10.5813 1.58935 10.6352 1.46114C10.6891 1.33293 10.7169 1.19551 10.7169 1.05674C10.7169 0.917967 10.6891 0.780553 10.6352 0.652344C10.5813 0.524134 10.5023 0.407639 10.4027 0.309512C10.3031 0.211384 10.1848 0.133546 10.0547 0.0804397C9.92452 0.0273335 9.78503 0 9.64416 0C9.50329 0 9.36379 0.0273335 9.23365 0.0804397C9.1035 0.133546 8.98524 0.211384 8.88563 0.309512L0.314752 8.75277C0.21498 8.85081 0.135822 8.96728 0.0818117 9.0955C0.0278014 9.22372 0 9.36118 0 9.5C0 9.63882 0.0278014 9.77628 0.0818117 9.9045C0.135822 10.0327 0.21498 10.1492 0.314752 10.2472L8.88563 18.6905C8.98524 18.7886 9.1035 18.8665 9.23365 18.9196C9.36379 18.9727 9.50329 19 9.64416 19C9.78503 19 9.92452 18.9727 10.0547 18.9196C10.1848 18.8665 10.3031 18.7886 10.4027 18.6905C10.5023 18.5924 10.5813 18.4759 10.6352 18.3477C10.6891 18.2194 10.7169 18.082 10.7169 17.9433C10.7169 17.8045 10.6891 17.6671 10.6352 17.5389C10.5813 17.4107 10.5023 17.2942 10.4027 17.196L3.65954 10.5554H28.9286C29.2128 10.5554 29.4853 10.4442 29.6862 10.2463C29.8871 10.0484 30 9.77991 30 9.5Z" fill="#80FFDB"/>
</svg>
