<svg width="30" height="19" viewBox="0 0 30 19" fill="none" xmlns="http://www.w3.org/2000/svg">
<path fill-rule="evenodd" clip-rule="evenodd" d="M-1.90735e-06 9.5C-1.90735e-06 9.77991 0.112873 10.0484 0.313791 10.2463C0.514711 10.4442 0.787216 10.5554 1.07136 10.5554L26.3405 10.5554L19.5973 17.196C19.4977 17.2942 19.4187 17.4107 19.3648 17.5389C19.3109 17.6671 19.2831 17.8045 19.2831 17.9433C19.2831 18.082 19.3109 18.2194 19.3648 18.3477C19.4187 18.4759 19.4977 18.5924 19.5973 18.6905C19.6969 18.7886 19.8152 18.8665 19.9453 18.9196C20.0755 18.9727 20.215 19 20.3558 19C20.4967 19 20.6362 18.9727 20.7664 18.9196C20.8965 18.8665 21.0148 18.7886 21.1144 18.6905L29.6852 10.2472C29.785 10.1492 29.8642 10.0327 29.9182 9.9045C29.9722 9.77628 30 9.63882 30 9.5C30 9.36118 29.9722 9.22372 29.9182 9.0955C29.8642 8.96728 29.785 8.85081 29.6852 8.75277L21.1144 0.309511C21.0148 0.211384 20.8965 0.133545 20.7664 0.0804386C20.6362 0.0273323 20.4967 0 20.3558 0C20.215 0 20.0755 0.0273323 19.9453 0.0804386C19.8152 0.133545 19.6969 0.211384 19.5973 0.309511C19.4977 0.407639 19.4187 0.524132 19.3648 0.652342C19.3109 0.780552 19.2831 0.917967 19.2831 1.05674C19.2831 1.19551 19.3109 1.33293 19.3648 1.46114C19.4187 1.58935 19.4977 1.70584 19.5973 1.80397L26.3405 8.44459L1.07136 8.44459C0.787216 8.44459 0.514711 8.55579 0.313791 8.75371C0.112873 8.95164 -1.90735e-06 9.22009 -1.90735e-06 9.5Z" fill="#80FFDB"/>
</svg>
