<svg width="262" height="19" viewBox="0 0 262 19" fill="none" xmlns="http://www.w3.org/2000/svg">
<circle cx="8" cy="10" r="8" fill="#80FFDB"/>
<circle cx="30" cy="10" r="6" fill="#528791"/>
<circle cx="50" cy="10" r="6" fill="#528791"/>
<circle cx="68" cy="10" r="6" fill="#528791"/>
<circle cx="87" cy="10" r="6" fill="#528791"/>
<path fill-rule="evenodd" clip-rule="evenodd" d="M194 9.5C194 9.22009 193.887 8.95164 193.686 8.75372C193.485 8.55579 193.213 8.44459 192.929 8.44459H167.66L174.403 1.80397C174.502 1.70584 174.581 1.58935 174.635 1.46114C174.689 1.33293 174.717 1.19551 174.717 1.05674C174.717 0.917967 174.689 0.780553 174.635 0.652344C174.581 0.524134 174.502 0.407639 174.403 0.309512C174.303 0.211384 174.185 0.133546 174.055 0.0804397C173.925 0.0273335 173.785 0 173.644 0C173.503 0 173.364 0.0273335 173.234 0.0804397C173.103 0.133546 172.985 0.211384 172.886 0.309512L164.315 8.75277C164.215 8.85081 164.136 8.96728 164.082 9.0955C164.028 9.22372 164 9.36118 164 9.5C164 9.63882 164.028 9.77628 164.082 9.9045C164.136 10.0327 164.215 10.1492 164.315 10.2472L172.886 18.6905C172.985 18.7886 173.103 18.8665 173.234 18.9196C173.364 18.9727 173.503 19 173.644 19C173.785 19 173.925 18.9727 174.055 18.9196C174.185 18.8665 174.303 18.7886 174.403 18.6905C174.502 18.5924 174.581 18.4759 174.635 18.3477C174.689 18.2194 174.717 18.082 174.717 17.9433C174.717 17.8045 174.689 17.6671 174.635 17.5389C174.581 17.4107 174.502 17.2942 174.403 17.196L167.66 10.5554H192.929C193.213 10.5554 193.485 10.4442 193.686 10.2463C193.887 10.0484 194 9.77991 194 9.5Z" fill="#80FFDB"/>
<path fill-rule="evenodd" clip-rule="evenodd" d="M232 9.5C232 9.77991 232.113 10.0484 232.314 10.2463C232.515 10.4442 232.787 10.5554 233.071 10.5554L258.34 10.5554L251.597 17.196C251.498 17.2942 251.419 17.4107 251.365 17.5389C251.311 17.6671 251.283 17.8045 251.283 17.9433C251.283 18.082 251.311 18.2194 251.365 18.3477C251.419 18.4759 251.498 18.5924 251.597 18.6905C251.697 18.7886 251.815 18.8665 251.945 18.9196C252.075 18.9727 252.215 19 252.356 19C252.497 19 252.636 18.9727 252.766 18.9196C252.897 18.8665 253.015 18.7886 253.114 18.6905L261.685 10.2472C261.785 10.1492 261.864 10.0327 261.918 9.9045C261.972 9.77628 262 9.63882 262 9.5C262 9.36118 261.972 9.22372 261.918 9.0955C261.864 8.96728 261.785 8.85081 261.685 8.75277L253.114 0.309511C253.015 0.211384 252.897 0.133545 252.766 0.0804386C252.636 0.0273323 252.497 0 252.356 0C252.215 0 252.075 0.0273323 251.945 0.0804386C251.815 0.133545 251.697 0.211384 251.597 0.309511C251.498 0.407639 251.419 0.524132 251.365 0.652342C251.311 0.780552 251.283 0.917967 251.283 1.05674C251.283 1.19551 251.311 1.33293 251.365 1.46114C251.419 1.58935 251.498 1.70584 251.597 1.80397L258.34 8.44459L233.071 8.44459C232.787 8.44459 232.515 8.55579 232.314 8.75371C232.113 8.95164 232 9.22009 232 9.5Z" fill="#80FFDB"/>
</svg>
