<svg width="24" height="31" viewBox="0 0 24 31" fill="none" xmlns="http://www.w3.org/2000/svg">
<path d="M5.11502 8.6038C5.11502 8.6038 3.84557 14.0167 4.31803 15.5121C4.31803 15.5121 5.23923 7.32085 11.9913 1.01265C11.9913 1.01265 11.6264 6.30745 14.9601 9.00328C18.2939 11.6991 18.9432 15.882 18.9432 15.882C18.9432 15.882 19.4113 13.0275 18.3881 8.45202C18.3881 8.45202 25.4285 15.7726 21.8674 23.9147C21.8674 23.9147 17.5988 32.8803 6.2348 28.9222C-5.12919 24.9641 3.02339 10.0081 5.11502 8.6038Z" fill="#FF8500"/>
<path d="M17.22 15.6115C17.2592 17.909 16.1715 18.5091 15.3032 18.6274C14.7471 18.7043 14.1912 18.5641 13.7134 18.3035C9.02598 15.7886 11.6484 9.68119 11.6484 9.68119C8.44748 12.561 9.89757 18.5647 9.89757 18.5647C9.89757 18.5647 10.7634 21.9679 8.78248 22.2581C7.7888 22.4062 7.33955 22.0191 7.14006 21.6025C6.95836 21.2161 6.97146 20.7639 7.15099 20.3664C8.58205 17.1502 7.48996 15.3262 7.48996 15.3262C6.79561 17.1695 6.08211 18.3857 5.56942 19.1139C4.84249 20.1492 4.36648 21.3298 4.26843 22.5656C3.91094 27.1716 7.83977 29.0212 7.83977 29.0212C14.2855 32.2705 17.3936 26.3694 17.3936 26.3694C20.9546 20.0836 17.22 15.6115 17.22 15.6115Z" fill="#FCD870"/>
</svg>
