<svg width="29" height="21" viewBox="0 0 29 21" fill="none" xmlns="http://www.w3.org/2000/svg">
<path d="M24.7683 3.11728C21.42 0.611711 18.212 0.68213 18.212 0.68213L17.8842 1.05672C21.8647 2.25092 23.7146 4.00701 23.7146 4.00701C18.0195 0.871472 10.7654 0.893971 4.84177 4.00701C4.84177 4.00701 6.76178 2.15713 10.9767 0.962929L10.7426 0.681838C10.7426 0.681838 7.55801 0.611711 4.18638 3.11699C4.18638 3.11699 0.814453 9.18149 0.814453 16.6511C0.814453 16.6511 2.78151 20.0231 7.95628 20.187C7.95628 20.187 8.82263 19.1567 9.52507 18.267C6.5514 17.3773 5.42733 15.5274 5.42733 15.5274C7.29562 16.6964 9.18466 17.4281 11.5389 17.8924C15.369 18.6807 20.1332 17.8702 23.6915 15.5274C23.6915 15.5274 22.5207 17.424 19.4533 18.2904C20.1557 19.1567 20.9987 20.1636 20.9987 20.1636C26.1734 19.9997 28.1402 16.6278 28.1402 16.6514C28.1399 9.18178 24.7683 3.11728 24.7683 3.11728ZM10.1103 14.4737C8.79897 14.4737 7.72194 13.3263 7.72194 11.898C7.81778 8.4773 12.4269 8.48782 12.4987 11.898C12.4987 13.3263 11.4448 14.4737 10.1103 14.4737ZM18.6567 14.4737C17.3454 14.4737 16.2683 13.3263 16.2683 11.898C16.3735 8.48402 20.925 8.48256 21.0451 11.898C21.0451 13.3263 19.9915 14.4737 18.6567 14.4737Z" fill="#6665D2"/>
</svg>
