<svg width="31" height="30" viewBox="0 0 31 30" fill="none" xmlns="http://www.w3.org/2000/svg">
<path fill-rule="evenodd" clip-rule="evenodd" d="M25.0287 7.31306C25.0287 8.28141 24.2437 9.06622 23.2756 9.06622C22.3074 9.06622 21.5224 8.28141 21.5224 7.31306C21.5224 6.34471 22.3074 5.55989 23.2756 5.55989C24.2439 5.55989 25.0287 6.34471 25.0287 7.31306ZM15.4769 19.9815C12.7874 19.9815 10.6071 17.8012 10.6071 15.1117C10.6071 12.4221 12.7874 10.2419 15.4769 10.2419C18.1665 10.2419 20.3468 12.4221 20.3468 15.1117C20.3468 17.8012 18.1665 19.9815 15.4769 19.9815ZM15.4769 7.60936C11.3335 7.60936 7.97459 10.9682 7.97459 15.1117C7.97459 19.2551 11.3335 22.614 15.4769 22.614C19.6204 22.614 22.9792 19.2551 22.9792 15.1117C22.9792 10.9682 19.6204 7.60936 15.4769 7.60936ZM15.4769 3.13444C19.3779 3.13444 19.84 3.14928 21.3804 3.21959C22.8048 3.28465 23.5785 3.52252 24.0932 3.72271C24.7751 3.98774 25.2618 4.30436 25.7731 4.81571C26.2845 5.32682 26.6011 5.8135 26.8661 6.4956C27.0661 7.01036 27.3042 7.78399 27.3692 9.20844C27.4396 10.7491 27.4544 11.2111 27.4544 15.1121C27.4544 19.0132 27.4396 19.4752 27.3692 21.0156C27.3042 22.4401 27.0663 23.2137 26.8661 23.7285C26.6011 24.4103 26.2845 24.897 25.7731 25.4084C25.262 25.9197 24.7753 26.2363 24.0932 26.5013C23.5785 26.7013 22.8048 26.9394 21.3804 27.0045C19.84 27.0748 19.3779 27.0896 15.4769 27.0896C11.5757 27.0896 11.1136 27.0748 9.57322 27.0045C8.14877 26.9394 7.37514 26.7015 6.86037 26.5013C6.17851 26.2363 5.69182 25.9197 5.18048 25.4084C4.66937 24.8972 4.35252 24.4106 4.08749 23.7285C3.88752 23.2137 3.64943 22.4401 3.58437 21.0156C3.51406 19.475 3.49922 19.0129 3.49922 15.1121C3.49922 11.2111 3.51406 10.7491 3.58437 9.20844C3.64943 7.78399 3.88729 7.01036 4.08749 6.4956C4.35252 5.81373 4.66914 5.32705 5.18048 4.81571C5.6916 4.30436 6.17828 3.98774 6.86037 3.72271C7.37514 3.52274 8.14877 3.28465 9.57322 3.21959C11.1139 3.14928 11.5759 3.13444 15.4769 3.13444ZM15.4769 0.501953C11.5092 0.501953 11.0116 0.518846 9.45337 0.58984C7.89835 0.660834 6.83618 0.90783 5.90709 1.26896C4.94627 1.6422 4.13155 2.1419 3.31934 2.95411C2.50713 3.76632 2.00743 4.58104 1.6342 5.54185C1.27306 6.47117 1.02607 7.53312 0.955074 9.08814C0.88408 10.6464 0.867188 11.144 0.867188 15.1117C0.867188 19.0794 0.88408 19.577 0.955074 21.1352C1.02607 22.6903 1.27306 23.7522 1.6342 24.6815C2.00743 25.6423 2.50713 26.4571 3.31934 27.2693C4.13155 28.0815 4.94627 28.5809 5.90709 28.9544C6.8364 29.3155 7.89835 29.5625 9.45337 29.6335C11.0116 29.7045 11.5092 29.7214 15.4769 29.7214C19.4446 29.7214 19.9422 29.7045 21.5005 29.6335C23.0555 29.5625 24.1174 29.3155 25.0468 28.9544C26.0076 28.5809 26.8223 28.0815 27.6345 27.2693C28.4467 26.4571 28.9462 25.6423 29.3196 24.6815C29.6808 23.7522 29.9278 22.6903 29.9988 21.1352C30.0698 19.577 30.0867 19.0794 30.0867 15.1117C30.0867 11.144 30.0698 10.6464 29.9988 9.08814C29.9278 7.53312 29.6808 6.47117 29.3196 5.54185C28.9462 4.58104 28.4467 3.76632 27.6345 2.95411C26.8223 2.1419 26.0076 1.64243 25.0468 1.26896C24.1174 0.90783 23.0555 0.660834 21.5005 0.58984C19.9422 0.518846 19.4446 0.501953 15.4769 0.501953Z" fill="url(#paint0_radial_247_6762)"/>
<defs>
<radialGradient id="paint0_radial_247_6762" cx="0" cy="0" r="1" gradientUnits="userSpaceOnUse" gradientTransform="translate(5.22981 29.8229) scale(37.3352)">
<stop stop-color="#FFB140"/>
<stop offset="0.2559" stop-color="#FF5445"/>
<stop offset="0.599" stop-color="#FC2B82"/>
<stop offset="1" stop-color="#8E40B7"/>
</radialGradient>
</defs>
</svg>
