<svg width="32" height="32" viewBox="0 0 32 32" fill="none" xmlns="http://www.w3.org/2000/svg">
<path d="M10.6666 2.66663C8.94235 2.66663 7.47305 3.79019 6.91657 5.33329H3.9999C3.26353 5.33329 2.66656 5.93025 2.66656 6.66663C2.66656 7.403 3.26353 7.99996 3.9999 7.99996H6.91397C7.46977 9.54431 8.94146 10.6666 10.6666 10.6666C12.3908 10.6666 13.8601 9.54307 14.4166 7.99996H27.9999C28.7363 7.99996 29.3332 7.403 29.3332 6.66663C29.3332 5.93025 28.7363 5.33329 27.9999 5.33329H14.4166C13.8601 3.79019 12.3908 2.66663 10.6666 2.66663ZM10.6666 5.33329C11.4187 5.33329 11.9999 5.91445 11.9999 6.66663C11.9999 7.4188 11.4187 7.99996 10.6666 7.99996C9.91439 7.99996 9.33323 7.4188 9.33323 6.66663C9.33323 5.91445 9.91439 5.33329 10.6666 5.33329Z" fill="url(#paint0_linear_489_12793)"/>
<path d="M19.9999 11.9996C18.2757 11.9996 16.8064 13.1232 16.2499 14.6663H3.9999C3.26353 14.6663 2.66656 15.2632 2.66656 15.9996C2.66656 16.736 3.26353 17.333 3.9999 17.333H16.2473C16.8031 18.8773 18.2748 19.9996 19.9999 19.9996C21.7241 19.9996 23.1934 18.8761 23.7499 17.333H27.9999C28.7363 17.333 29.3332 16.736 29.3332 15.9996C29.3332 15.2632 28.7363 14.6663 27.9999 14.6663H23.7499C23.1934 13.1232 21.7241 11.9996 19.9999 11.9996ZM19.9999 14.6663C20.7521 14.6663 21.3332 15.2475 21.3332 15.9996C21.3332 16.7518 20.7521 17.333 19.9999 17.333C19.2477 17.333 18.6666 16.7518 18.6666 15.9996C18.6666 15.2475 19.2477 14.6663 19.9999 14.6663Z" fill="url(#paint1_linear_489_12793)"/>
<path d="M10.6666 21.3334C8.94235 21.3334 7.47305 22.4569 6.91657 24H3.9999C3.26353 24 2.66656 24.597 2.66656 25.3334C2.66656 26.0698 3.26353 26.6667 3.9999 26.6667H6.91657C7.47305 28.2098 8.94235 29.3334 10.6666 29.3334C12.3917 29.3334 13.8634 28.2111 14.4192 26.6667H27.9999C28.7363 26.6667 29.3332 26.0698 29.3332 25.3334C29.3332 24.597 28.7363 24 27.9999 24H14.4166C13.8601 22.4569 12.3908 21.3334 10.6666 21.3334ZM10.6666 24C11.4187 24 11.9999 24.5812 11.9999 25.3334C11.9999 26.0855 11.4187 26.6667 10.6666 26.6667C9.91439 26.6667 9.33323 26.0855 9.33323 25.3334C9.33323 24.5812 9.91439 24 10.6666 24Z" fill="url(#paint2_linear_489_12793)"/>
<defs>
<linearGradient id="paint0_linear_489_12793" x1="7.66657" y1="2.66663" x2="21.571" y2="16.0326" gradientUnits="userSpaceOnUse">
<stop stop-color="#692ADC"/>
<stop offset="0.820595" stop-color="#0ED0C8"/>
</linearGradient>
<linearGradient id="paint1_linear_489_12793" x1="7.66657" y1="11.9996" x2="21.571" y2="25.3656" gradientUnits="userSpaceOnUse">
<stop stop-color="#692ADC"/>
<stop offset="0.820595" stop-color="#0ED0C8"/>
</linearGradient>
<linearGradient id="paint2_linear_489_12793" x1="7.66657" y1="21.3334" x2="21.571" y2="34.6994" gradientUnits="userSpaceOnUse">
<stop stop-color="#692ADC"/>
<stop offset="0.820595" stop-color="#0ED0C8"/>
</linearGradient>
</defs>
</svg>
