<svg width="11" height="14" viewBox="0 0 11 14" fill="none" xmlns="http://www.w3.org/2000/svg">
<path d="M11 6.87497C11 9.91254 8.53757 12.375 5.5 12.375C2.46243 12.375 0 9.91254 0 6.87497C0 3.8374 2.46243 1.37497 5.5 1.37497C8.53757 1.37497 11 3.8374 11 6.87497Z" fill="#692ADC"/>
<path d="M5.44097 7.82819V8.15887H6.39728V7.82819C6.39728 6.62162 7.83622 6.80931 7.83622 5.41506C7.83622 4.29787 7.00503 3.68119 5.8789 3.68119C4.72597 3.68119 3.82328 4.31575 3.84115 5.73681H4.74384C4.74384 4.93244 5.14603 4.45875 5.8789 4.45875C6.56709 4.45875 6.93353 4.852 6.93353 5.41506C6.93353 6.40712 5.44097 6.32669 5.44097 7.82819ZM5.32478 9.4995C5.32478 9.83019 5.5929 10.0894 5.91465 10.0894C6.24534 10.0894 6.51347 9.83019 6.51347 9.4995C6.51347 9.17775 6.24534 8.90962 5.91465 8.90962C5.5929 8.90962 5.32478 9.17775 5.32478 9.4995Z" fill="#F9F9F9"/>
</svg>
