<svg width="31" height="30" viewBox="0 0 31 30" fill="none" xmlns="http://www.w3.org/2000/svg">
<path d="M15.4769 29.7829C23.5457 29.7829 30.0867 23.2419 30.0867 15.1732C30.0867 7.10448 23.5457 0.563477 15.4769 0.563477C7.40819 0.563477 0.867188 7.10448 0.867188 15.1732C0.867188 23.2419 7.40819 29.7829 15.4769 29.7829Z" fill="#FF4500"/>
<path d="M25.2169 15.173C25.2169 13.994 24.26 13.0371 23.081 13.0371C22.5 13.0371 21.9874 13.2593 21.6115 13.6352C20.159 12.5929 18.1427 11.9093 15.9214 11.8239L16.8954 7.26156L20.0565 7.92796C20.0907 8.7311 20.7571 9.38043 21.5773 9.38043C22.4146 9.38043 23.0981 8.69691 23.0981 7.85965C23.0981 7.02233 22.4146 6.33887 21.5773 6.33887C20.9792 6.33887 20.4666 6.6806 20.2274 7.19319L16.6903 6.44136C16.5878 6.4243 16.4853 6.44136 16.3998 6.49261C16.3144 6.54392 16.2631 6.62935 16.2289 6.73185L15.1524 11.8239C12.8798 11.8923 10.8464 12.5587 9.37689 13.6352C9.00098 13.2763 8.47126 13.0371 7.90736 13.0371C6.72836 13.0371 5.77148 13.994 5.77148 15.173C5.77148 16.0445 6.28408 16.7792 7.03591 17.121C7.00173 17.3261 6.98466 17.5482 6.98466 17.7703C6.98466 21.0511 10.7952 23.6996 15.5113 23.6996C20.2274 23.6996 24.0379 21.0511 24.0379 17.7703C24.0379 17.5482 24.0208 17.3431 23.9866 17.1381C24.6872 16.7964 25.2169 16.0445 25.2169 15.173ZM10.6072 16.6938C10.6072 15.8565 11.2907 15.173 12.128 15.173C12.9652 15.173 13.6488 15.8565 13.6488 16.6938C13.6488 17.5311 12.9652 18.2146 12.128 18.2146C11.2907 18.2146 10.6072 17.5311 10.6072 16.6938ZM19.0996 20.7094C18.0573 21.7517 16.0752 21.82 15.4942 21.82C14.9132 21.82 12.914 21.7346 11.8887 20.7094C11.7349 20.5556 11.7349 20.2993 11.8887 20.1455C12.0425 19.9917 12.2988 19.9917 12.4526 20.1455C13.102 20.7948 14.5031 21.034 15.5113 21.034C16.5195 21.034 17.9035 20.7948 18.5699 20.1455C18.7237 19.9917 18.98 19.9917 19.1338 20.1455C19.2534 20.3163 19.2534 20.5556 19.0996 20.7094ZM18.8263 18.2146C17.9889 18.2146 17.3055 17.5311 17.3055 16.6938C17.3055 15.8565 17.9889 15.173 18.8263 15.173C19.6635 15.173 20.347 15.8565 20.347 16.6938C20.347 17.5311 19.6635 18.2146 18.8263 18.2146Z" fill="#1D0F36"/>
</svg>
