<svg width="116" height="119" viewBox="0 0 116 119" fill="none" xmlns="http://www.w3.org/2000/svg">
<rect width="116" height="119" rx="10.9434" fill="#190935"/>
<g clip-path="url(#clip0_489_12714)">
<path d="M67.9702 45.185L70.9367 42.2184L73.8236 45.1054L70.8571 48.0719C73.7885 51.7411 75.2036 56.3935 74.812 61.0735C74.4203 65.7535 72.2516 70.106 68.7511 73.2369C65.2507 76.3679 60.6842 78.0397 55.9897 77.909C51.2951 77.7783 46.8287 75.855 43.5079 72.5342C40.1871 69.2133 38.2638 64.747 38.1331 60.0524C38.0024 55.3579 39.6742 50.7914 42.8052 47.291C45.9361 43.7905 50.2886 41.6218 54.9686 41.2301C59.6486 40.8385 64.301 42.2536 67.9702 45.185ZM54.4584 49.3337V61.5837H58.5418V49.3337H54.4584ZM48.3334 35.042H64.6668V39.1253H48.3334V35.042Z" fill="url(#paint0_linear_489_12714)"/>
</g>
<defs>
<linearGradient id="paint0_linear_489_12714" x1="45.0166" y1="35.042" x2="80.7431" y2="37.9372" gradientUnits="userSpaceOnUse">
<stop stop-color="#692ADC"/>
<stop offset="0.820595" stop-color="#0ED0C8"/>
</linearGradient>
<clipPath id="clip0_489_12714">
<rect width="49" height="49" fill="white" transform="translate(32 33)"/>
</clipPath>
</defs>
</svg>
