<svg width="31" height="25" viewBox="0 0 31 25" fill="none" xmlns="http://www.w3.org/2000/svg">
<path d="M30.0813 3.48249C29.0066 3.96004 27.8524 4.28237 26.6389 4.42573C27.8761 3.68428 28.8267 2.51003 29.275 1.11114C28.1163 1.79689 26.8343 2.29727 25.4692 2.56481C24.3753 1.4006 22.8175 0.672852 21.0927 0.672852C17.7826 0.672852 15.1008 3.35556 15.1008 6.66558C15.1008 7.13492 15.1529 7.5933 15.2552 8.03159C10.2742 7.7814 5.85836 5.39545 2.90172 1.7695C2.38673 2.65521 2.09088 3.68428 2.09088 4.78275C2.09088 6.86281 3.14917 8.69633 4.75624 9.77198C3.77465 9.74002 2.85059 9.47156 2.04248 9.02232C2.04157 9.04697 2.04157 9.07345 2.04157 9.09719C2.04157 12.0018 4.10702 14.4243 6.84909 14.9749C6.34688 15.1109 5.81727 15.1849 5.27032 15.1849C4.88316 15.1849 4.50879 15.1474 4.14355 15.078C4.90508 17.4576 7.11937 19.1907 9.7409 19.24C7.69097 20.8471 5.10688 21.8067 2.29907 21.8067C1.81512 21.8067 1.33757 21.7784 0.869141 21.7227C3.52081 23.4211 6.67103 24.4137 10.0559 24.4137C21.079 24.4137 27.1082 15.2817 27.1082 7.36137C27.1082 7.10205 27.1009 6.84273 27.09 6.58523C28.2615 5.7406 29.2769 4.68596 30.0813 3.48249Z" fill="#55ACEE"/>
</svg>
