<svg width="18" height="27" viewBox="0 0 18 27" fill="none" xmlns="http://www.w3.org/2000/svg">
<path d="M14.3342 10.6666V5.99996C14.3342 4.58547 13.7723 3.22892 12.7721 2.22872C11.7719 1.22853 10.4153 0.666626 9.00083 0.666626C7.58635 0.666626 6.22979 1.22853 5.2296 2.22872C4.2294 3.22892 3.6675 4.58547 3.6675 5.99996C3.6675 6.35358 3.80798 6.69272 4.05803 6.94277C4.30807 7.19282 4.64721 7.33329 5.00083 7.33329C5.35446 7.33329 5.69359 7.19282 5.94364 6.94277C6.19369 6.69272 6.33417 6.35358 6.33417 5.99996C6.33417 5.29271 6.61512 4.61444 7.11522 4.11434C7.61531 3.61424 8.29359 3.33329 9.00083 3.33329C9.70808 3.33329 10.3864 3.61424 10.8865 4.11434C11.3865 4.61444 11.6675 5.29271 11.6675 5.99996V10.6666H3.6675C2.78345 10.6666 1.9356 11.0178 1.31048 11.6429C0.685357 12.2681 0.334167 13.1159 0.334167 14V23.3333C0.334167 24.2173 0.685357 25.0652 1.31048 25.6903C1.9356 26.3154 2.78345 26.6666 3.6675 26.6666H14.3342C15.2182 26.6666 16.0661 26.3154 16.6912 25.6903C17.3163 25.0652 17.6675 24.2173 17.6675 23.3333V14C17.6675 13.1159 17.3163 12.2681 16.6912 11.6429C16.0661 11.0178 15.2182 10.6666 14.3342 10.6666ZM10.3342 20.2933V20.6666C10.3342 21.0202 10.1937 21.3594 9.94364 21.6094C9.69359 21.8595 9.35446 22 9.00083 22C8.64721 22 8.30807 21.8595 8.05802 21.6094C7.80798 21.3594 7.6675 21.0202 7.6675 20.6666V20.2933C7.26447 20.0606 6.92934 19.7265 6.69543 19.3242C6.46152 18.9219 6.33698 18.4653 6.33417 18C6.33417 17.2927 6.61512 16.6144 7.11522 16.1143C7.61531 15.6142 8.29359 15.3333 9.00083 15.3333C9.70808 15.3333 10.3864 15.6142 10.8865 16.1143C11.3865 16.6144 11.6675 17.2927 11.6675 18C11.6647 18.4653 11.5401 18.9219 11.3062 19.3242C11.0723 19.7265 10.7372 20.0606 10.3342 20.2933Z" fill="url(#paint0_linear_489_12782)"/>
<defs>
<linearGradient id="paint0_linear_489_12782" x1="3.58417" y1="0.666624" x2="20.3537" y2="3.89064" gradientUnits="userSpaceOnUse">
<stop stop-color="#692ADC"/>
<stop offset="0.820595" stop-color="#0ED0C8"/>
</linearGradient>
</defs>
</svg>
