<svg width="56" height="48" viewBox="0 0 56 48" fill="none" xmlns="http://www.w3.org/2000/svg">
<path d="M52.5 0H3.5C1.55 0 0 1.5875 0 3.5375V44.4625C0 46.4125 1.55 48 3.5 48H52.5C54.45 48 56 46.4125 56 44.4625V3.5375C56 1.5875 54.45 0 52.5 0ZM39.6125 24.7125C39.2375 24.275 38.6625 23.9375 38.0125 23.9375C37.375 23.9375 36.925 24.2375 36.4125 24.65L34.075 26.625C33.5875 26.975 33.2 27.2125 32.6375 27.2125C32.1 27.2125 31.6125 27.0125 31.2625 26.7C31.1375 26.5875 30.9125 26.375 30.725 26.1875L24 18.9125C23.5 18.3375 22.75 17.975 21.9125 17.975C21.075 17.975 20.3 18.3875 19.8125 18.95L4 38.025V5.4625C4.125 4.6125 4.7875 4 5.6375 4H50.35C51.2125 4 51.9125 4.6375 51.9625 5.5L52 38.05L39.6125 24.7125Z" fill="url(#paint0_linear_487_12565)"/>
<defs>
<linearGradient id="paint0_linear_487_12565" x1="3.12924e-07" y1="24" x2="62.9565" y2="24" gradientUnits="userSpaceOnUse">
<stop stop-color="#80FFDB"/>
<stop offset="1" stop-color="#692ADC"/>
</linearGradient>
</defs>
</svg>
