<svg width="158" height="125" viewBox="0 0 158 125" fill="none" xmlns="http://www.w3.org/2000/svg">
<rect width="158" height="124.504" rx="8" fill="#190935"/>
<path d="M99.5625 56.125C104.428 56.125 108.375 52.1777 108.375 47.3125C108.375 42.4473 104.428 38.5 99.5625 38.5C94.6973 38.5 90.75 42.4473 90.75 47.3125C90.75 52.1777 94.6973 56.125 99.5625 56.125Z" fill="url(#paint0_linear_487_12568)"/>
<path d="M114.984 26.75H43.0156C40.1516 26.75 37.875 29.0816 37.875 31.9457V92.0543C37.875 94.9184 40.1516 97.25 43.0156 97.25H114.984C117.848 97.25 120.125 94.9184 120.125 92.0543V31.9457C120.125 29.0816 117.848 26.75 114.984 26.75ZM96.0559 63.0465C95.5051 62.4039 94.6605 61.9082 93.7059 61.9082C92.7695 61.9082 92.1086 62.3488 91.3559 62.9547L87.9227 65.8555C87.2066 66.3695 86.6375 66.7184 85.8113 66.7184C85.0219 66.7184 84.3059 66.4246 83.7918 65.9656C83.6082 65.8004 83.2777 65.4883 83.0023 65.2129L73.125 54.5277C72.3906 53.6832 71.2891 53.1508 70.059 53.1508C68.8289 53.1508 67.6906 53.7566 66.9746 54.5828L43.75 82.5992V34.773C43.9336 33.5246 44.9066 32.625 46.1551 32.625H111.827C113.093 32.625 114.121 33.5613 114.195 34.8281L114.25 82.6359L96.0559 63.0465Z" fill="url(#paint1_linear_487_12568)"/>
<defs>
<linearGradient id="paint0_linear_487_12568" x1="90.75" y1="47.3125" x2="110.564" y2="47.3125" gradientUnits="userSpaceOnUse">
<stop stop-color="#80FFDB"/>
<stop offset="1" stop-color="#692ADC"/>
</linearGradient>
<linearGradient id="paint1_linear_487_12568" x1="37.875" y1="62" x2="130.342" y2="62" gradientUnits="userSpaceOnUse">
<stop stop-color="#80FFDB"/>
<stop offset="1" stop-color="#692ADC"/>
</linearGradient>
</defs>
</svg>
