<svg width="116" height="119" viewBox="0 0 116 119" fill="none" xmlns="http://www.w3.org/2000/svg">
<rect width="116" height="119" rx="10.9434" fill="#190935"/>
<path d="M32 43.5998C32 40.6848 34.385 38.2998 37.3 38.2998H77.05C77.7528 38.2998 78.4269 38.579 78.9238 39.076C79.4208 39.5729 79.7 40.247 79.7 40.9498V43.5998H37.3V46.2498H82.35C83.0528 46.2498 83.7269 46.529 84.2238 47.026C84.7208 47.5229 85 48.197 85 48.8998V75.3998C85 76.8055 84.4416 78.1535 83.4477 79.1475C82.4537 80.1414 81.1056 80.6998 79.7 80.6998H37.3C35.8944 80.6998 34.5463 80.1414 33.5523 79.1475C32.5584 78.1535 32 76.8055 32 75.3998V43.5998ZM75.725 67.4498C76.7792 67.4498 77.7903 67.031 78.5357 66.2856C79.2812 65.5401 79.7 64.529 79.7 63.4748C79.7 62.4206 79.2812 61.4095 78.5357 60.6641C77.7903 59.9186 76.7792 59.4998 75.725 59.4998C74.6708 59.4998 73.6597 59.9186 72.9143 60.6641C72.1688 61.4095 71.75 62.4206 71.75 63.4748C71.75 64.529 72.1688 65.5401 72.9143 66.2856C73.6597 67.031 74.6708 67.4498 75.725 67.4498Z" fill="url(#paint0_linear_489_12701)"/>
<defs>
<linearGradient id="paint0_linear_489_12701" x1="41.9375" y1="38.2998" x2="93.0853" y2="44.3444" gradientUnits="userSpaceOnUse">
<stop stop-color="#692ADC"/>
<stop offset="0.820595" stop-color="#0ED0C8"/>
</linearGradient>
</defs>
</svg>
