<svg width="36" height="32" viewBox="0 0 36 32" fill="none" xmlns="http://www.w3.org/2000/svg">
<path d="M5.00684 23.5C6.32312 25.7811 8.21699 27.6752 10.4979 28.9918C12.7788 30.3084 15.3662 31.0011 17.9998 31C20.6335 31.0011 23.2209 30.3084 25.5018 28.9918C27.7827 27.6752 29.6766 25.7811 30.9928 23.5M5.00684 8.5C6.32312 6.21892 8.21699 4.32477 10.4979 3.00816C12.7788 1.69155 15.3662 0.998933 17.9998 1C20.6335 0.998933 23.2209 1.69155 25.5018 3.00816C27.7827 4.32477 29.6766 6.21892 30.9928 8.5" stroke="#80FFDB" stroke-width="1.5" stroke-linecap="round" stroke-linejoin="round"/>
<path d="M19.5 30.925C19.5 30.925 21.612 28.1455 22.9425 23.5M19.5 1.07495C19.5 1.07495 21.612 3.85295 22.9425 8.49995M16.5 30.925C16.5 30.925 14.388 28.147 13.0575 23.5M16.5 1.07495C16.5 1.07495 14.388 3.85295 13.0575 8.49995M13.5 13L15.75 20.5L18 13L20.25 20.5L22.5 13M1.5 13L3.75 20.5L6 13L8.25 20.5L10.5 13M25.5 13L27.75 20.5L30 13L32.25 20.5L34.5 13" stroke="#80FFDB" stroke-width="1.5" stroke-linecap="round" stroke-linejoin="round"/>
</svg>
