<svg width="18" height="16" viewBox="0 0 18 16" fill="none" xmlns="http://www.w3.org/2000/svg">
<path d="M17.0909 11.343H5.27978L5.87281 10.1351L15.7263 10.1173C16.0595 10.1173 16.3451 9.87926 16.4046 9.55002L17.7692 1.91199C17.8049 1.71166 17.7513 1.50539 17.6204 1.3487C17.5557 1.27159 17.475 1.20947 17.3839 1.16666C17.2928 1.12385 17.1935 1.10137 17.0928 1.10078L4.55783 1.05913L4.45073 0.555349C4.38329 0.23404 4.09372 0 3.76447 0H0.700136C0.514449 0 0.336366 0.0737641 0.205065 0.205065C0.0737641 0.336366 0 0.514449 0 0.700136C0 0.885824 0.0737641 1.06391 0.205065 1.19521C0.336366 1.32651 0.514449 1.40027 0.700136 1.40027H3.19722L3.6653 3.62563L4.81765 9.20491L3.33408 11.6266C3.25703 11.7306 3.21063 11.8541 3.20011 11.9831C3.1896 12.1121 3.21539 12.2414 3.27458 12.3565C3.39358 12.5925 3.63357 12.7413 3.89934 12.7413H5.14491C4.87937 13.094 4.73594 13.5236 4.73633 13.965C4.73633 15.0876 5.64869 16 6.77129 16C7.89389 16 8.80625 15.0876 8.80625 13.965C8.80625 13.5227 8.65948 13.0924 8.39767 12.7413H11.5929C11.3274 13.094 11.1839 13.5236 11.1843 13.965C11.1843 15.0876 12.0967 16 13.2193 16C14.3419 16 15.2542 15.0876 15.2542 13.965C15.2542 13.5227 15.1075 13.0924 14.8457 12.7413H17.0928C17.4776 12.7413 17.793 12.4279 17.793 12.0412C17.7918 11.8557 17.7174 11.6782 17.5858 11.5474C17.4543 11.4166 17.2764 11.3431 17.0909 11.343ZM4.84939 2.43957L16.2697 2.47725L15.1511 8.7408L6.18024 8.75666L4.84939 2.43957ZM6.77129 14.5918C6.42618 14.5918 6.14454 14.3102 6.14454 13.965C6.14454 13.6199 6.42618 13.3383 6.77129 13.3383C7.1164 13.3383 7.39804 13.6199 7.39804 13.965C7.39804 14.1313 7.33201 14.2907 7.21447 14.4082C7.09693 14.5258 6.93751 14.5918 6.77129 14.5918ZM13.2193 14.5918C12.8742 14.5918 12.5925 14.3102 12.5925 13.965C12.5925 13.6199 12.8742 13.3383 13.2193 13.3383C13.5644 13.3383 13.846 13.6199 13.846 13.965C13.846 14.1313 13.78 14.2907 13.6625 14.4082C13.5449 14.5258 13.3855 14.5918 13.2193 14.5918Z" fill="white"/>
</svg>
