<svg width="18" height="17" viewBox="0 0 18 17" fill="none" xmlns="http://www.w3.org/2000/svg">
<path d="M13.7418 2.66604C13.9128 3.07949 14.2409 3.40814 14.6541 3.57971L16.103 4.17986C16.5165 4.35113 16.845 4.67964 17.0163 5.09312C17.1875 5.50661 17.1875 5.9712 17.0163 6.38468L16.4165 7.83252C16.2452 8.24618 16.245 8.71124 16.4171 9.12471L17.0158 10.5721C17.1007 10.7769 17.1444 10.9964 17.1444 11.2181C17.1444 11.4398 17.1008 11.6593 17.016 11.8642C16.9311 12.069 16.8068 12.2551 16.65 12.4118C16.4932 12.5686 16.307 12.6929 16.1022 12.7776L14.6544 13.3774C14.2409 13.5483 13.9123 13.8765 13.7407 14.2897L13.1405 15.7385C12.9693 16.152 12.6408 16.4805 12.2273 16.6518C11.8138 16.8231 11.3492 16.8231 10.9357 16.6518L9.48788 16.0521C9.07439 15.8812 8.60997 15.8816 8.19673 16.0531L6.74786 16.6523C6.3346 16.8232 5.87042 16.8231 5.45727 16.6519C5.04412 16.4808 4.71579 16.1527 4.5444 15.7396L3.94408 14.2903C3.77313 13.8769 3.44498 13.5482 3.03178 13.3767L1.58291 12.7765C1.1696 12.6053 0.84119 12.277 0.669856 11.8638C0.498522 11.4505 0.498289 10.9862 0.66921 10.5727L1.26892 9.1249C1.43977 8.71141 1.43942 8.24698 1.26795 7.83375L0.669101 6.38383C0.584196 6.17904 0.540477 5.95952 0.540441 5.73782C0.540406 5.51613 0.584054 5.2966 0.668894 5.09178C0.753734 4.88696 0.878101 4.70086 1.03489 4.54412C1.19168 4.38738 1.37781 4.26307 1.58266 4.1783L3.0305 3.57859C3.44359 3.40778 3.77203 3.08005 3.94374 2.66733L4.54388 1.21845C4.71515 0.80497 5.04366 0.476457 5.45715 0.305186C5.87063 0.133915 6.33522 0.133915 6.74871 0.305186L8.19654 0.904899C8.61004 1.07575 9.07446 1.0754 9.48769 0.903928L10.9372 0.306116C11.3506 0.134941 11.8151 0.134976 12.2285 0.306213C12.6419 0.47745 12.9704 0.805869 13.1417 1.21925L13.742 2.66855L13.7418 2.66604Z" fill="#0788F5"/>
</svg>
