<svg width="22" height="27" viewBox="0 0 22 27" fill="none" xmlns="http://www.w3.org/2000/svg">
<path d="M6 3.5V18.5C6 19.163 6.26339 19.7989 6.73223 20.2678C7.20107 20.7366 7.83696 21 8.5 21H18.5C19.163 21 19.7989 20.7366 20.2678 20.2678C20.7366 19.7989 21 19.163 21 18.5V7.5525C21 7.21945 20.9334 6.88976 20.8041 6.58281C20.6749 6.27585 20.4857 5.9978 20.2475 5.765L16.1038 1.7125C15.6367 1.25582 15.0095 1.00008 14.3563 1H8.5C7.83696 1 7.20107 1.26339 6.73223 1.73223C6.26339 2.20107 6 2.83696 6 3.5V3.5Z" stroke="white" stroke-width="2" stroke-linecap="round" stroke-linejoin="round"/>
<path d="M16 21V23.5C16 24.163 15.7366 24.7989 15.2678 25.2678C14.7989 25.7366 14.163 26 13.5 26H3.5C2.83696 26 2.20107 25.7366 1.73223 25.2678C1.26339 24.7989 1 24.163 1 23.5V9.75C1 9.08696 1.26339 8.45107 1.73223 7.98223C2.20107 7.51339 2.83696 7.25 3.5 7.25H6" stroke="white" stroke-width="2" stroke-linecap="round" stroke-linejoin="round"/>
</svg>
