<svg width="37" height="30" viewBox="0 0 37 30" fill="none" xmlns="http://www.w3.org/2000/svg">
<path opacity="0.2" fill-rule="evenodd" clip-rule="evenodd" d="M0 28.3333C0 27.8913 0.175595 27.4674 0.488156 27.1548C0.800716 26.8423 1.22464 26.6667 1.66667 26.6667H35C35.442 26.6667 35.866 26.8423 36.1785 27.1548C36.4911 27.4674 36.6667 27.8913 36.6667 28.3333C36.6667 28.7754 36.4911 29.1993 36.1785 29.5118C35.866 29.8244 35.442 30 35 30H1.66667C1.22464 30 0.800716 29.8244 0.488156 29.5118C0.175595 29.1993 0 28.7754 0 28.3333ZM0 15C0 14.558 0.175595 14.134 0.488156 13.8215C0.800716 13.5089 1.22464 13.3333 1.66667 13.3333H35C35.442 13.3333 35.866 13.5089 36.1785 13.8215C36.4911 14.134 36.6667 14.558 36.6667 15C36.6667 15.442 36.4911 15.866 36.1785 16.1785C35.866 16.4911 35.442 16.6667 35 16.6667H1.66667C1.22464 16.6667 0.800716 16.4911 0.488156 16.1785C0.175595 15.866 0 15.442 0 15ZM0 1.66667C0 1.22464 0.175595 0.800716 0.488156 0.488156C0.800716 0.175595 1.22464 0 1.66667 0H35C35.442 0 35.866 0.175595 36.1785 0.488156C36.4911 0.800716 36.6667 1.22464 36.6667 1.66667C36.6667 2.10869 36.4911 2.53262 36.1785 2.84518C35.866 3.15774 35.442 3.33333 35 3.33333H1.66667C1.22464 3.33333 0.800716 3.15774 0.488156 2.84518C0.175595 2.53262 0 2.10869 0 1.66667Z" fill="#80FFDB"/>
</svg>
