<svg width="148" height="40" viewBox="0 0 148 40" fill="none" xmlns="http://www.w3.org/2000/svg">
<path d="M68.5336 30.3009H60.773C58.9478 30.3009 58.0352 29.3548 58.0352 27.4625V14.2151C58.0352 12.3204 58.9478 11.3737 60.773 11.3749H68.0524C69.1507 11.3513 70.2433 11.5395 71.2714 11.9293C72.0897 12.2356 72.8285 12.7248 73.4321 13.3601C73.9885 13.9967 74.4172 14.7359 74.6945 15.5368C74.9935 16.3528 75.1984 17.2008 75.3053 18.0639C75.4102 18.9835 75.46 19.9087 75.4544 20.8343C75.4593 21.7558 75.4095 22.6767 75.3053 23.5922C75.1989 24.458 75.0013 25.31 74.7158 26.1337C74.4601 26.9269 74.0597 27.6651 73.5351 28.3103C72.9835 28.9384 72.2941 29.4283 71.5217 29.7411C70.5741 30.1312 69.5571 30.3218 68.5336 30.3009ZM66.8114 14.2151H62.9195C62.3869 14.2151 62.0318 14.3045 61.8542 14.4851C61.6767 14.6658 61.5843 15.0217 61.5843 15.5582V26.1104C61.5843 26.647 61.6749 27.0047 61.8542 27.1835C62.0335 27.3624 62.3869 27.4554 62.9195 27.4554H66.8114C67.8494 27.4554 68.7082 27.2974 69.3876 26.9814C70.0454 26.6872 70.5848 26.1772 70.9181 25.5345C71.256 24.8905 71.4915 24.1971 71.6158 23.4795C71.7524 22.6035 71.8154 21.7174 71.804 20.8307C71.8153 19.9441 71.7523 19.058 71.6158 18.182C71.4909 17.4645 71.2555 16.7712 70.9181 16.127C70.5848 15.4843 70.0454 14.9743 69.3876 14.6801C68.7082 14.3701 67.8494 14.2151 66.8114 14.2151Z" fill="white"/>
<path d="M77.3065 30.3009V27.4626H87.7197C88.9034 27.4626 89.4952 26.7776 89.4952 25.4076C89.4952 24.3619 88.8868 23.6495 87.67 23.2703L80.252 20.9256C79.0684 20.5476 78.2398 19.9663 77.7663 19.1818C77.2929 18.3972 77.0562 17.3205 77.0562 15.9517C77.0562 14.546 77.4112 13.4329 78.1214 12.6126C78.8316 11.7922 79.9052 11.3821 81.3422 11.3821H92.1584V14.2151H82.2974C82.0836 14.2046 81.8701 14.2401 81.6711 14.3194C81.4721 14.3987 81.2921 14.5198 81.1433 14.6747C80.8581 14.9812 80.7148 15.4581 80.7136 16.1055C80.6964 16.5581 80.8033 17.0068 81.0226 17.4022C81.2285 17.7456 81.6712 18.0252 82.3506 18.241L89.2218 20.4301C90.635 20.8809 91.6412 21.4669 92.2401 22.1883C92.839 22.9096 93.1385 23.9911 93.1385 25.4326C93.1385 26.9099 92.8124 28.0903 92.1602 28.9739C91.508 29.8574 90.4924 30.2991 89.1135 30.2991L77.3065 30.3009Z" fill="white"/>
<path d="M102.829 30.3009H100.876C99.1747 30.3009 97.8774 29.9432 96.9838 29.2278C96.0901 28.5124 95.6427 27.3141 95.6415 25.6329V18.4055H93.6885V15.9713H95.6415V11.3749H98.7823V15.9713H102.834V18.4055H98.777V24.9747C98.777 26.0192 99.0451 26.7626 99.5813 27.205C100.117 27.6473 100.941 27.8679 102.051 27.8667H102.829V30.3009Z" fill="white"/>
<path d="M104.413 15.9714H112.491C113.793 15.9714 114.786 16.3589 115.47 17.134C116.154 17.909 116.494 18.9272 116.489 20.1887V27.8668C116.489 29.4884 115.684 30.2998 114.075 30.301H106.909C104.542 30.301 103.358 28.8141 103.358 25.8404C103.358 24.4525 103.654 23.3622 104.246 22.5692C104.837 21.7763 105.725 21.3793 106.909 21.3781H113.35V20.4588C113.35 19.09 112.688 18.4056 111.364 18.4056H104.413V15.9714ZM113.35 23.8123H108.116C107.112 23.8123 106.611 24.4883 106.612 25.8404C106.614 27.1925 107.115 27.868 108.116 27.8668H112.544C113.082 27.8668 113.35 27.5967 113.35 27.0566V23.8123Z" fill="white"/>
<path d="M128.648 30.301H124.085C121.938 30.301 120.43 29.6881 119.563 28.4624C118.695 27.2367 118.261 25.4523 118.261 23.1094C118.261 20.7664 118.69 18.991 119.548 17.7832C120.407 16.5754 121.919 15.9714 124.085 15.9714H129.372C130.983 15.9714 131.788 16.7828 131.787 18.4056V29.1921C131.787 31.2298 131.3 32.7125 130.326 33.6401C129.351 34.5678 127.79 35.0316 125.642 35.0316H119.25V32.5992H125.642C127.43 32.5992 128.432 31.8331 128.648 30.301ZM127.835 18.4056H124.862C124.247 18.3829 123.635 18.4933 123.066 18.7293C122.612 18.9337 122.249 19.2991 122.045 19.7559C121.833 20.2148 121.688 20.7021 121.615 21.2028C121.536 21.8351 121.5 22.4721 121.509 23.1094C121.5 23.7466 121.536 24.3836 121.615 25.0159C121.689 25.5204 121.834 26.0118 122.045 26.4753C122.247 26.9395 122.61 27.3138 123.066 27.5288C123.632 27.7744 124.246 27.8899 124.862 27.8668H128.648V19.2158C128.648 18.6757 128.377 18.4056 127.835 18.4056Z" fill="white"/>
<path d="M146.817 30.3009H138.926C137.817 30.3009 136.9 30.1477 136.176 29.8412C135.48 29.5598 134.898 29.05 134.525 28.3943C134.141 27.7118 133.882 26.9655 133.76 26.1909C133.612 25.1707 133.545 24.1402 133.559 23.1093C133.559 20.3335 134.082 18.4228 135.129 17.3771C136.175 16.3314 137.942 15.8086 140.43 15.8086C142.647 15.8086 144.342 16.2188 145.515 17.0391C146.688 17.8594 147.274 19.3421 147.273 21.4871C147.273 23.2899 146.54 24.1907 145.073 24.1895H136.806C136.806 25.4343 137.008 26.3584 137.41 26.9617C137.813 27.5651 138.631 27.8667 139.866 27.8667H146.817V30.3009ZM136.806 21.7572H143.328C143.793 21.7572 144.026 21.4776 144.026 20.9184C144.026 20.0372 143.681 19.3707 142.992 18.9188C142.303 18.4669 141.449 18.2416 140.43 18.2428C139.106 18.2428 138.171 18.5176 137.625 19.0673C137.079 19.6169 136.806 20.5136 136.806 21.7572Z" fill="white"/>
<path d="M52.8366 40H0L17.6021 24.0519L8.68744 0L26.4192 16.0644L44.1492 0L35.2345 24.0519L52.8366 40Z" fill="#692ADC"/>
<path d="M35.2344 24.0518L29.3238 39.9999H23.5126L17.6021 24.0518L26.4191 16.0643L35.2344 24.0518Z" fill="#59C3E6"/>
</svg>
