<svg width="30" height="30" viewBox="0 0 30 30" fill="none" xmlns="http://www.w3.org/2000/svg">
<path d="M27.9544 24.5455H23.1817C20.1742 24.5455 17.7273 22.0986 17.7273 19.0911C17.7273 16.0835 20.1742 13.6366 23.1817 13.6366H27.9544C28.3312 13.6366 28.6362 13.3317 28.6362 12.9548V10.9094C28.6362 9.47963 27.5272 8.31687 26.126 8.20412L22.2103 1.36474C21.8475 0.732193 21.2615 0.280091 20.5604 0.0923594C19.8626 -0.0940935 19.1329 0.00383102 18.5083 0.367341L5.08503 8.18213H2.72749C1.22341 8.18213 0.000244141 9.40523 0.000244141 10.9094V27.2727C0.000244141 28.7768 1.22334 30 2.72749 30H25.909C27.413 30 28.6362 28.7769 28.6362 27.2727V25.2273C28.6362 24.8505 28.3312 24.5455 27.9544 24.5455ZM23.0559 5.58726L24.5415 8.18213H18.5989L23.0559 5.58726ZM7.79522 8.18213L19.1947 1.54582C19.503 1.36538 19.8632 1.31744 20.2075 1.40935C20.5557 1.50255 20.846 1.72761 21.0265 2.04254L21.0279 2.04503L10.4869 8.18213H7.79522Z" fill="#692ADC"/>
<path d="M27.9543 15.0002H23.1817C20.9258 15.0002 19.0908 16.8352 19.0908 19.0911C19.0908 21.3469 20.9258 23.1819 23.1817 23.1819H27.9543C29.0823 23.1819 29.9998 22.2644 29.9998 21.1365V17.0457C29.9998 15.9177 29.0823 15.0002 27.9543 15.0002ZM23.1817 20.4547C22.43 20.4547 21.8181 19.8428 21.8181 19.0911C21.8181 18.3394 22.43 17.7275 23.1817 17.7275C23.9334 17.7275 24.5453 18.3394 24.5453 19.0911C24.5453 19.8428 23.9334 20.4547 23.1817 20.4547Z" fill="#692ADC"/>
</svg>
