<svg width="22" height="16" viewBox="0 0 22 16" fill="none" xmlns="http://www.w3.org/2000/svg">
<path d="M0.5 1.25C0.5 1.44891 0.579018 1.63968 0.719669 1.78033C0.860321 1.92098 1.05109 2 1.25 2H20.75C20.9489 2 21.1397 1.92098 21.2803 1.78033C21.421 1.63968 21.5 1.44891 21.5 1.25C21.5 1.05109 21.421 0.860322 21.2803 0.71967C21.1397 0.579018 20.9489 0.5 20.75 0.5H1.25C1.05109 0.5 0.860321 0.579018 0.719669 0.71967C0.579018 0.860322 0.5 1.05109 0.5 1.25ZM4.25 7.25H20.75C20.9489 7.25 21.1397 7.32902 21.2803 7.46967C21.421 7.61032 21.5 7.80109 21.5 8C21.5 8.19891 21.421 8.38968 21.2803 8.53033C21.1397 8.67098 20.9489 8.75 20.75 8.75H4.25C4.05109 8.75 3.86032 8.67098 3.71967 8.53033C3.57902 8.38968 3.5 8.19891 3.5 8C3.5 7.80109 3.57902 7.61032 3.71967 7.46967C3.86032 7.32902 4.05109 7.25 4.25 7.25ZM11 14H20.75C20.9489 14 21.1397 14.079 21.2803 14.2197C21.421 14.3603 21.5 14.5511 21.5 14.75C21.5 14.9489 21.421 15.1397 21.2803 15.2803C21.1397 15.421 20.9489 15.5 20.75 15.5H11C10.8011 15.5 10.6103 15.421 10.4697 15.2803C10.329 15.1397 10.25 14.9489 10.25 14.75C10.25 14.5511 10.329 14.3603 10.4697 14.2197C10.6103 14.079 10.8011 14 11 14Z" fill="white"/>
</svg>
