<svg width="20" height="20" viewBox="0 0 20 20" fill="none" xmlns="http://www.w3.org/2000/svg">
<path d="M19.3359 9.92512H18.1641V7.58465C18.1641 6.91004 17.8202 6.3143 17.2987 5.96328L11.4498 0.114414C11.2973 -0.0380859 11.0499 -0.0380859 10.8974 0.114414L9.7075 1.30426L8.51766 0.114414C8.44441 0.0411719 8.34504 0 8.24145 0C8.13785 0 8.03848 0.0411719 7.96523 0.114414L2.44809 5.63152H2.22656C1.14961 5.63152 0.273438 6.5077 0.273438 7.58465V11.0579C0.273438 11.2736 0.44832 11.4486 0.664062 11.4486C0.879805 11.4486 1.05469 11.2736 1.05469 11.0579V7.58465C1.05469 6.93848 1.58039 6.41277 2.22656 6.41277H16.2109C16.8571 6.41277 17.3828 6.93848 17.3828 7.58465V9.92512H11.4453C9.85141 9.92512 8.55469 11.2218 8.55469 12.8157C8.55469 14.4096 9.85141 15.7064 11.4453 15.7064H17.3828V18.0469C17.3828 18.693 16.8571 19.2188 16.2109 19.2188H2.22656C1.58039 19.2188 1.05469 18.693 1.05469 18.0469V14.5736C1.05469 14.3578 0.879805 14.1829 0.664062 14.1829C0.44832 14.1829 0.273438 14.3578 0.273438 14.5736V18.0469C0.273438 19.1238 1.14961 20 2.22656 20H16.2109C17.2879 20 18.1641 19.1238 18.1641 18.0469V15.7064H19.3359C19.5517 15.7064 19.7266 15.5314 19.7266 15.3157V10.3157C19.7266 10.1 19.5517 9.92512 19.3359 9.92512ZM3.55297 5.63152L8.24145 0.943086L9.15504 1.85672L5.3802 5.63156H3.55297V5.63152ZM6.48512 5.63152L11.1736 0.943086L15.862 5.63152H6.48512ZM18.9453 14.9251H11.4453C10.2822 14.9251 9.33594 13.9788 9.33594 12.8157C9.33594 11.6527 10.2822 10.7064 11.4453 10.7064H18.9453V14.9251Z" fill="#190935"/>
<path d="M11.4453 11.6438C10.7991 11.6438 10.2734 12.1695 10.2734 12.8157C10.2734 13.4618 10.7991 13.9875 11.4453 13.9875C12.0915 13.9875 12.6172 13.4618 12.6172 12.8157C12.6172 12.1695 12.0915 11.6438 11.4453 11.6438ZM11.4453 13.2063C11.2299 13.2063 11.0547 13.0311 11.0547 12.8157C11.0547 12.6003 11.2299 12.425 11.4453 12.425C11.6607 12.425 11.8359 12.6003 11.8359 12.8157C11.8359 13.0311 11.6607 13.2063 11.4453 13.2063Z" fill="#190935"/>
<path d="M0.664062 13.2063C0.766797 13.2063 0.867578 13.1649 0.940234 13.0918C1.01289 13.0192 1.05469 12.9184 1.05469 12.8157C1.05469 12.7129 1.01289 12.6122 0.940234 12.5395C0.867578 12.4668 0.766797 12.425 0.664062 12.425C0.561328 12.425 0.460547 12.4668 0.387891 12.5395C0.315234 12.6122 0.273438 12.7129 0.273438 12.8157C0.273438 12.9184 0.315234 13.0192 0.387891 13.0918C0.460547 13.1649 0.561328 13.2063 0.664062 13.2063Z" fill="#190935"/>
</svg>
