<svg width="14" height="15" viewBox="0 0 14 15" fill="none" xmlns="http://www.w3.org/2000/svg">
<g clip-path="url(#clip0_540_113540)">
<path d="M10.8106 2.97944C10.9435 3.30101 11.1988 3.55662 11.5201 3.69007L12.647 4.15685C12.9686 4.29006 13.2242 4.54557 13.3574 4.86717C13.4906 5.18877 13.4906 5.55011 13.3574 5.87171L12.8909 6.99781C12.7577 7.31955 12.7575 7.68126 12.8913 8.00285L13.357 9.12861C13.423 9.28789 13.457 9.45862 13.457 9.63106C13.4571 9.80349 13.4231 9.97423 13.3571 10.1335C13.2912 10.2928 13.1944 10.4376 13.0725 10.5595C12.9505 10.6814 12.8058 10.7781 12.6464 10.844L11.5203 11.3105C11.1988 11.4434 10.9432 11.6987 10.8097 12.02L10.3429 13.1469C10.2097 13.4685 9.95421 13.724 9.63261 13.8572C9.31101 13.9905 8.94966 13.9905 8.62806 13.8572L7.50197 13.3908C7.18036 13.2579 6.81915 13.2582 6.49774 13.3916L5.37084 13.8577C5.04942 13.9906 4.68839 13.9905 4.36705 13.8574C4.04571 13.7243 3.79034 13.469 3.65704 13.1478L3.19012 12.0206C3.05716 11.699 2.80193 11.4434 2.48056 11.3099L1.35366 10.8431C1.0322 10.71 0.776764 10.4546 0.643504 10.1332C0.510244 9.81181 0.510063 9.45064 0.643001 9.12909L1.10944 8.003C1.24233 7.68139 1.24206 7.32017 1.10869 6.99876L0.642916 5.87105C0.576879 5.71177 0.542875 5.54103 0.542847 5.3686C0.54282 5.19617 0.576769 5.02542 0.642755 4.86612C0.708742 4.70681 0.805472 4.56207 0.927418 4.44017C1.04936 4.31826 1.19414 4.22157 1.35346 4.15564L2.47956 3.6892C2.80085 3.55635 3.05631 3.30144 3.18986 2.98044L3.65663 1.85354C3.78984 1.53194 4.04535 1.27643 4.36695 1.14322C4.68855 1.01001 5.0499 1.01001 5.3715 1.14322L6.49759 1.60966C6.8192 1.74254 7.18041 1.74227 7.50182 1.60891L8.6292 1.14394C8.95075 1.0108 9.31202 1.01083 9.63356 1.14402C9.9551 1.2772 10.2106 1.53264 10.3438 1.85415L10.8107 2.98139L10.8106 2.97944Z" fill="#0788F5"/>
<path fill-rule="evenodd" clip-rule="evenodd" d="M9.7416 5.66499C9.83513 5.51809 9.86646 5.34006 9.82872 5.17006C9.79098 5.00006 9.68725 4.85201 9.54035 4.75849C9.39346 4.66497 9.21542 4.63363 9.04542 4.67137C8.87542 4.70911 8.72738 4.81284 8.63385 4.95974L6.06398 8.99786L4.88798 7.52786C4.77926 7.39187 4.62097 7.30464 4.44793 7.28536C4.27489 7.26608 4.10128 7.31633 3.96529 7.42505C3.8293 7.53377 3.74207 7.69206 3.72279 7.8651C3.70351 8.03814 3.75376 8.21175 3.86248 8.34774L5.61248 10.5352C5.6777 10.6169 5.76146 10.6817 5.85681 10.7245C5.95216 10.7672 6.05633 10.7865 6.16065 10.7809C6.26498 10.7752 6.36646 10.7448 6.45663 10.692C6.54681 10.6392 6.62308 10.5657 6.6791 10.4775L9.7416 5.66499V5.66499Z" fill="white"/>
</g>
<defs>
<clipPath id="clip0_540_113540">
<rect width="14" height="14" fill="white" transform="translate(0 0.5)"/>
</clipPath>
</defs>
</svg>
