<svg width="30" height="24" viewBox="0 0 30 24" fill="none" xmlns="http://www.w3.org/2000/svg">
<path d="M25.3963 2.46194C23.4842 1.58462 21.4338 0.938214 19.2899 0.56796C19.2509 0.560811 19.2119 0.578682 19.1918 0.614366C18.9281 1.08341 18.636 1.69524 18.4314 2.17618C16.1256 1.83095 13.8315 1.83095 11.573 2.17618C11.3683 1.68458 11.0656 1.08341 10.8007 0.614366C10.7807 0.579854 10.7416 0.561983 10.7026 0.56796C8.55995 0.936983 6.50952 1.58339 4.5962 2.46194C4.57962 2.46909 4.56543 2.48099 4.556 2.49646C0.666782 8.3069 -0.398686 13.9746 0.12397 19.5719C0.126314 19.5993 0.141724 19.6255 0.162993 19.6422C2.72899 21.5266 5.21465 22.6706 7.65409 23.4289C7.69311 23.4408 7.73448 23.4266 7.75932 23.3944C8.33635 22.6064 8.85075 21.7754 9.29178 20.9016C9.3178 20.8505 9.29295 20.7897 9.23975 20.7695C8.42383 20.46 7.64694 20.0826 6.89958 19.6541C6.84045 19.6196 6.83571 19.535 6.89014 19.4946C7.04741 19.3767 7.20473 19.2541 7.35491 19.1303C7.3821 19.1077 7.41995 19.1029 7.45188 19.1172C12.3616 21.3588 17.6769 21.3588 22.5286 19.1172C22.5606 19.1017 22.5984 19.1065 22.6268 19.1291C22.777 19.2529 22.9343 19.3767 23.0927 19.4945C23.1471 19.535 23.1435 19.6195 23.0845 19.6541C22.3371 20.0909 21.5602 20.4599 20.7431 20.7683C20.6899 20.7885 20.6662 20.8504 20.6923 20.9016C21.1428 21.7741 21.6572 22.6051 22.2236 23.3932C22.2473 23.4265 22.2898 23.4408 22.3288 23.4288C24.7801 22.6706 27.2658 21.5265 29.8318 19.6421C29.8543 19.6255 29.8684 19.6004 29.8708 19.5731C30.4963 13.1019 28.8231 7.48073 25.4352 2.49763C25.427 2.48099 25.4129 2.46909 25.3963 2.46194ZM10.0251 16.1637C8.54694 16.1637 7.32895 14.8067 7.32895 13.14C7.32895 11.4734 8.52327 10.1163 10.0251 10.1163C11.5386 10.1163 12.7448 11.4853 12.7212 13.14C12.7212 14.8067 11.5268 16.1637 10.0251 16.1637ZM19.9935 16.1637C18.5154 16.1637 17.2974 14.8067 17.2974 13.14C17.2974 11.4734 18.4917 10.1163 19.9935 10.1163C21.5071 10.1163 22.7132 11.4853 22.6896 13.14C22.6896 14.8067 21.5071 16.1637 19.9935 16.1637Z" fill="white"/>
</svg>
