<svg width="30" height="22" viewBox="0 0 30 22" fill="none" xmlns="http://www.w3.org/2000/svg">
<path d="M26.0736 0.84375H3.92578C3.14905 0.844634 2.40439 1.15358 1.85516 1.70281C1.30592 2.25204 0.996978 2.99671 0.996094 3.77344V18.2227C0.996978 18.9994 1.30592 19.744 1.85516 20.2933C2.40439 20.8425 3.14905 21.1515 3.92578 21.1523H26.0735C26.8502 21.1515 27.5949 20.8425 28.1441 20.2933C28.6934 19.744 29.0023 18.9994 29.0032 18.2227V3.77344C29.0024 2.99671 28.6934 2.25204 28.1442 1.7028C27.595 1.15356 26.8503 0.844619 26.0736 0.84375V0.84375ZM20.8646 10.9941L27.8314 5.52621V17.757L20.8646 10.9941ZM3.92578 2.01562H26.0735C26.5396 2.01615 26.9864 2.20152 27.3159 2.53106C27.6454 2.8606 27.8308 3.3074 27.8313 3.77344V4.03652L16.5573 12.8852C16.1451 13.207 15.6371 13.3816 15.1141 13.3812C14.5912 13.3808 14.0835 13.2054 13.6718 12.8829L2.16797 4.0343V3.77344C2.1685 3.3074 2.35386 2.8606 2.6834 2.53106C3.01294 2.20152 3.45974 2.01615 3.92578 2.01562V2.01562ZM9.34207 11.0309L2.16797 17.7806V5.51273L9.34207 11.0309ZM26.0736 19.9805H3.92578C3.62569 19.9803 3.33063 19.9033 3.0687 19.7568C2.80678 19.6104 2.5867 19.3993 2.42941 19.1438L10.283 11.7551L12.9538 13.8094C13.5715 14.2919 14.3328 14.5538 15.1166 14.5536C15.9003 14.5534 16.6615 14.2911 17.2789 13.8083L19.9344 11.7246L27.5729 19.1391C27.4159 19.3959 27.1956 19.6082 26.9331 19.7555C26.6706 19.9028 26.3746 19.9803 26.0736 19.9805V19.9805Z" fill="url(#paint0_linear_592_20405)"/>
<defs>
<linearGradient id="paint0_linear_592_20405" x1="0.996094" y1="10.998" x2="32.4823" y2="10.998" gradientUnits="userSpaceOnUse">
<stop stop-color="#80FFDB"/>
<stop offset="1" stop-color="#692ADC"/>
</linearGradient>
</defs>
</svg>
