<svg width="22" height="28" viewBox="0 0 22 28" fill="none" xmlns="http://www.w3.org/2000/svg">
<path d="M11.0562 23.6625C11.4359 23.6625 12.6547 23.1562 14.3984 21.5438C17.1688 18.9938 20.4031 14.5125 20.4031 10.2937C20.4031 7.79989 19.4124 5.40816 17.649 3.64474C15.8856 1.88131 13.4939 0.890625 11 0.890625C8.50614 0.890625 6.11441 1.88131 4.35099 3.64474C2.58756 5.40816 1.59687 7.79989 1.59687 10.2937C1.59687 16.9219 9.31719 23.5219 11.0562 23.6625ZM11 4.69219C11.8863 4.69219 12.7527 4.95501 13.4896 5.44741C14.2266 5.93982 14.801 6.6397 15.1401 7.45854C15.4793 8.27738 15.5681 9.17841 15.3951 10.0477C15.2222 10.917 14.7954 11.7154 14.1687 12.3422C13.542 12.9689 12.7435 13.3957 11.8742 13.5686C11.005 13.7415 10.1039 13.6527 9.2851 13.3136C8.46626 12.9744 7.76638 12.4 7.27398 11.6631C6.78157 10.9261 6.51875 10.0597 6.51875 9.17344C6.51999 7.98532 6.99252 6.84621 7.83265 6.00609C8.67278 5.16596 9.81188 4.69343 11 4.69219ZM21.2188 24.5438C21.2188 25.4203 17.6141 27.1219 11 27.1219C4.38594 27.1219 0.78125 25.4203 0.78125 24.5438C0.78125 23.9578 2.46875 22.8703 6.22813 22.3078C6.29344 22.2975 6.35672 22.2769 6.41563 22.2469C8.17813 23.9109 9.90313 24.9797 10.9438 25.0594H11.075C12.4813 25.0594 14.5297 23.3297 15.3547 22.5703C15.4578 22.4766 15.5609 22.3734 15.6641 22.2703C15.6994 22.2818 15.7354 22.2912 15.7719 22.2984C19.5313 22.8703 21.2188 23.9578 21.2188 24.5438Z" fill="white"/>
</svg>
