<svg width="26" height="26" viewBox="0 0 26 26" fill="none" xmlns="http://www.w3.org/2000/svg">
<path d="M22.0164 11.9117C21.8921 11.9117 21.7729 11.8623 21.6849 11.7744C21.597 11.6865 21.5476 11.5673 21.5476 11.443C21.5702 9.65086 20.8821 7.92275 19.6338 6.63669C18.3855 5.35063 16.6787 4.61131 14.8867 4.58047C14.7624 4.58047 14.6432 4.53108 14.5553 4.44318C14.4674 4.35527 14.418 4.23604 14.418 4.11172C14.418 3.9874 14.4674 3.86817 14.5553 3.78026C14.6432 3.69235 14.7624 3.64297 14.8867 3.64297C16.9261 3.67138 18.8709 4.50757 20.2945 5.96809C21.7181 7.4286 22.5042 9.39418 22.4805 11.4336C22.4817 11.4955 22.4707 11.5571 22.4479 11.6148C22.4252 11.6724 22.3913 11.725 22.3482 11.7695C22.305 11.8139 22.2535 11.8494 22.1965 11.8738C22.1396 11.8982 22.0784 11.9111 22.0164 11.9117ZM24.782 21.7648C24.1836 22.9625 23.3348 24.0176 22.293 24.8586C21.9211 25.1533 21.4917 25.3668 21.0323 25.4855C20.573 25.6042 20.0938 25.6253 19.6258 25.5477C15.3742 24.8258 11.1883 22.9602 7.01171 18.8539C3.02265 14.5742 1.15234 10.2055 0.449215 5.84141C0.371397 5.36199 0.39063 4.87183 0.505773 4.39998C0.620916 3.92814 0.829625 3.48421 1.11953 3.09453C1.93026 2.02237 2.96736 1.14211 4.15703 0.516406C4.27129 0.396427 4.40874 0.300907 4.56103 0.23564C4.71332 0.170373 4.87728 0.136719 5.04296 0.136719C5.20865 0.136719 5.37261 0.170373 5.5249 0.23564C5.67719 0.300907 5.81464 0.396427 5.9289 0.516406L10.0586 4.80547C10.31 5.07531 10.4498 5.43041 10.4498 5.79922C10.4498 6.16803 10.31 6.52313 10.0586 6.79297L7.13359 9.96641C8.37578 12.6898 12.9648 17.4148 15.5992 18.6898L18.6883 15.6758C18.815 15.5488 18.9655 15.448 19.1312 15.3793C19.2969 15.3106 19.4745 15.2752 19.6539 15.2752C19.8333 15.2752 20.0109 15.3106 20.1766 15.3793C20.3423 15.448 20.4928 15.5488 20.6195 15.6758L24.7914 19.8945C24.9142 20.0176 25.0115 20.1638 25.0775 20.3246C25.1436 20.4854 25.1772 20.6578 25.1763 20.8316C25.1754 21.0055 25.1401 21.1775 25.0725 21.3377C25.0048 21.4978 24.9061 21.643 24.782 21.7648Z" fill="white"/>
</svg>
