<svg width="26" height="26" viewBox="0 0 26 26" fill="none" xmlns="http://www.w3.org/2000/svg">
<path d="M17.6357 13.8866C18.8612 12.9224 19.7557 11.6002 20.1947 10.104C20.6338 8.60776 20.5956 7.01189 20.0854 5.53839C19.5752 4.06489 18.6185 2.78705 17.3483 1.88263C16.078 0.978206 14.5575 0.492188 12.9982 0.492188C11.4389 0.492187 9.91831 0.978206 8.64808 1.88263C7.37785 2.78705 6.4211 4.06489 5.91093 5.53839C5.40077 7.01189 5.36256 8.60776 5.80162 10.104C6.24068 11.6002 7.13517 12.9224 8.36066 13.8866C6.26076 14.7279 4.42852 16.1232 3.05928 17.924C1.69004 19.7247 0.835119 21.8632 0.585665 24.1116C0.567608 24.2757 0.58206 24.4418 0.628197 24.6004C0.674333 24.7589 0.751249 24.9069 0.854554 25.0357C1.06319 25.2959 1.36664 25.4626 1.69816 25.4991C2.02969 25.5355 2.36211 25.4388 2.62232 25.2302C2.88253 25.0215 3.0492 24.7181 3.08566 24.3866C3.36015 21.943 4.52527 19.6863 6.35844 18.0475C8.1916 16.4088 10.5643 15.5028 13.0232 15.5028C15.482 15.5028 17.8547 16.4088 19.6879 18.0475C21.5211 19.6863 22.6862 21.943 22.9607 24.3866C22.9946 24.6937 23.1412 24.9774 23.372 25.1828C23.6029 25.3883 23.9016 25.5009 24.2107 25.4991H24.3482C24.6758 25.4614 24.9753 25.2957 25.1814 25.0381C25.3874 24.7806 25.4833 24.452 25.4482 24.1241C25.1975 21.8693 24.338 19.7253 22.9617 17.9218C21.5854 16.1183 19.7443 14.7234 17.6357 13.8866ZM12.9982 12.9991C12.0093 12.9991 11.0426 12.7058 10.2203 12.1564C9.39807 11.607 8.75721 10.8261 8.37877 9.91248C8.00033 8.99884 7.90131 7.99351 8.09424 7.02361C8.28716 6.0537 8.76337 5.16279 9.46263 4.46352C10.1619 3.76426 11.0528 3.28806 12.0227 3.09513C12.9926 2.9022 13.998 3.00122 14.9116 3.37966C15.8252 3.7581 16.6061 4.39896 17.1555 5.22121C17.7049 6.04345 17.9982 7.01015 17.9982 7.99906C17.9982 9.32514 17.4714 10.5969 16.5337 11.5346C15.596 12.4723 14.3242 12.9991 12.9982 12.9991Z" fill="url(#paint0_linear_592_20399)"/>
<defs>
<linearGradient id="paint0_linear_592_20399" x1="0.578125" y1="12.9994" x2="28.5456" y2="12.9994" gradientUnits="userSpaceOnUse">
<stop stop-color="#80FFDB"/>
<stop offset="1" stop-color="#692ADC"/>
</linearGradient>
</defs>
</svg>
