<svg width="15" height="15" viewBox="0 0 15 15" fill="none" xmlns="http://www.w3.org/2000/svg">
<g clip-path="url(#clip0_211_4848)">
<path d="M5.11442 6.45193H1.49128C1.12444 6.45159 0.772709 6.30574 0.513272 6.04639C0.253834 5.78703 0.107876 5.43535 0.107422 5.0685V1.49036C0.107876 1.12352 0.253834 0.771837 0.513272 0.51248C0.772709 0.253123 1.12444 0.107274 1.49128 0.106934H5.11442C5.48119 0.107387 5.83281 0.253287 6.09215 0.512632C6.3515 0.771976 6.4974 1.12359 6.49785 1.49036V5.0685C6.4974 5.43527 6.3515 5.78689 6.09215 6.04624C5.83281 6.30558 5.48119 6.45148 5.11442 6.45193ZM1.49128 1.17836C1.40853 1.17848 1.32919 1.21137 1.27064 1.26984C1.21208 1.32832 1.17908 1.40761 1.17885 1.49036V5.0685C1.17908 5.15126 1.21208 5.23055 1.27064 5.28902C1.32919 5.3475 1.40853 5.38039 1.49128 5.38051H5.11442C5.19714 5.38039 5.27643 5.34748 5.33492 5.289C5.3934 5.23051 5.42631 5.15122 5.42642 5.0685V1.49036C5.42631 1.40765 5.3934 1.32836 5.33492 1.26987C5.27643 1.21138 5.19714 1.17848 5.11442 1.17836H1.49128Z" fill="white"/>
<path d="M5.12809 14.8929H1.50495C1.13807 14.8924 0.786342 14.7465 0.526917 14.487C0.267492 14.2276 0.121547 13.8759 0.121094 13.509V9.93128C0.121548 9.56444 0.267506 9.21276 0.526943 8.9534C0.786381 8.69404 1.13811 8.54819 1.50495 8.54785H5.12809C5.49471 8.54853 5.84611 8.69453 6.10527 8.95385C6.36443 9.21317 6.51021 9.56466 6.51066 9.93128V13.509C6.51032 13.8757 6.36459 14.2273 6.10542 14.4867C5.84625 14.7461 5.49479 14.8922 5.12809 14.8929ZM1.50495 9.61928C1.4222 9.61939 1.34286 9.65229 1.28431 9.71076C1.22575 9.76924 1.19275 9.84853 1.19252 9.93128V13.509C1.19264 13.5918 1.22559 13.6712 1.28416 13.7298C1.34272 13.7884 1.42212 13.8213 1.50495 13.8214H5.12809C5.21084 13.8212 5.29014 13.7882 5.34861 13.7296C5.40709 13.6711 5.43998 13.5917 5.44009 13.509V9.93128C5.43998 9.84857 5.40707 9.76927 5.34859 9.71079C5.2901 9.6523 5.21081 9.61939 5.12809 9.61928H1.50495Z" fill="white"/>
<path d="M13.507 14.8929H9.88386C9.51697 14.8924 9.16525 14.7465 8.90582 14.487C8.6464 14.2276 8.50045 13.8759 8.5 13.509V9.93128C8.50045 9.56444 8.64641 9.21276 8.90585 8.9534C9.16529 8.69404 9.51701 8.54819 9.88386 8.54785H13.507C13.8738 8.54831 14.2254 8.6942 14.4847 8.95355C14.7441 9.21289 14.89 9.56451 14.8904 9.93128V13.509C14.8901 13.8758 14.7442 14.2276 14.4849 14.487C14.2255 14.7464 13.8738 14.8924 13.507 14.8929ZM9.88386 9.62142C9.8011 9.62154 9.72177 9.65443 9.66321 9.71291C9.60466 9.77138 9.57166 9.85067 9.57143 9.93342V13.5111C9.57154 13.594 9.60449 13.6734 9.66306 13.7319C9.72163 13.7905 9.80103 13.8235 9.88386 13.8236H13.507C13.5898 13.8233 13.669 13.7903 13.7275 13.7318C13.786 13.6732 13.8189 13.5939 13.819 13.5111V9.93128C13.8189 9.84857 13.786 9.76927 13.7275 9.71079C13.669 9.6523 13.5897 9.61939 13.507 9.61928L9.88386 9.62142Z" fill="white"/>
<path d="M11.7006 6.45215C11.0744 6.44749 10.4635 6.25754 9.94511 5.90624C9.42668 5.55494 9.02386 5.05802 8.78744 4.47813C8.55101 3.89823 8.49156 3.26132 8.61657 2.64768C8.74159 2.03404 9.04549 1.47116 9.48994 1.02998C9.9344 0.588802 10.4995 0.289085 11.1141 0.168613C11.7286 0.0481408 12.3651 0.112307 12.9432 0.353022C13.5213 0.593737 14.0153 1.00023 14.3627 1.52124C14.7102 2.04226 14.8956 2.65448 14.8956 3.28072C14.8914 4.12463 14.5527 4.93242 13.9537 5.52695C13.3548 6.12148 12.5445 6.4542 11.7006 6.45215ZM11.7006 1.18072C11.2863 1.18537 10.8826 1.31247 10.5404 1.54603C10.1982 1.77959 9.93267 2.10917 9.77733 2.49328C9.622 2.87739 9.58376 3.29887 9.66743 3.70467C9.7511 4.11046 9.95294 4.48244 10.2476 4.77377C10.5422 5.06511 10.9164 5.26279 11.3231 5.34192C11.7298 5.42106 12.1508 5.37812 12.5331 5.21851C12.9155 5.05889 13.2421 4.78974 13.4718 4.44493C13.7015 4.10011 13.8241 3.69505 13.8242 3.28072C13.8208 2.72053 13.5953 2.18457 13.1971 1.79046C12.799 1.39635 12.2608 1.17629 11.7006 1.17857V1.18072Z" fill="white"/>
</g>
<defs>
<clipPath id="clip0_211_4848">
<rect width="15" height="15" fill="white"/>
</clipPath>
</defs>
</svg>
