<svg width="29" height="21" viewBox="0 0 29 21" fill="none" xmlns="http://www.w3.org/2000/svg">
<path d="M24.9011 3.29062C21.5528 0.785051 18.3448 0.85547 18.3448 0.85547L18.017 1.23006C21.9976 2.42426 23.8474 4.18035 23.8474 4.18035C18.1523 1.04481 10.8982 1.06731 4.97459 4.18035C4.97459 4.18035 6.8946 2.33047 11.1095 1.13627L10.8755 0.855178C10.8755 0.855178 7.69083 0.785051 4.31919 3.29033C4.31919 3.29033 0.947266 9.35483 0.947266 16.8245C0.947266 16.8245 2.91432 20.1964 8.08909 20.3603C8.08909 20.3603 8.95545 19.3301 9.65788 18.4403C6.68422 17.5506 5.56014 15.7007 5.56014 15.7007C7.42844 16.8698 9.31747 17.6014 11.6717 18.0657C15.5018 18.8541 20.266 18.0435 23.8244 15.7007C23.8244 15.7007 22.6535 17.5973 19.5861 18.4637C20.2885 19.3301 21.1315 20.337 21.1315 20.337C26.3063 20.173 28.273 16.8011 28.273 16.8248C28.2727 9.35512 24.9011 3.29062 24.9011 3.29062ZM10.2431 14.6471C8.93178 14.6471 7.85475 13.4996 7.85475 12.0714C7.95059 8.65064 12.5597 8.66116 12.6315 12.0714C12.6315 13.4996 11.5776 14.6471 10.2431 14.6471ZM18.7896 14.6471C17.4782 14.6471 16.4012 13.4996 16.4012 12.0714C16.5063 8.65736 21.0579 8.6559 21.1779 12.0714C21.1779 13.4996 20.1243 14.6471 18.7896 14.6471Z" fill="#6665D2"/>
</svg>
