<svg width="16" height="16" viewBox="0 0 16 16" fill="none" xmlns="http://www.w3.org/2000/svg">
<path d="M6.23958 3V4.66667H2.07292V13.8333H11.2396V9.66667H12.9062V14.6667C12.9062 14.8877 12.8185 15.0996 12.6622 15.2559C12.5059 15.4122 12.2939 15.5 12.0729 15.5H1.23958C1.01857 15.5 0.806608 15.4122 0.650328 15.2559C0.494047 15.0996 0.40625 14.8877 0.40625 14.6667V3.83333C0.40625 3.61232 0.494047 3.40036 0.650328 3.24408C0.806608 3.0878 1.01857 3 1.23958 3H6.23958ZM15.4062 0.5V7.16667H13.7396V3.34417L7.24542 9.83917L6.06708 8.66083L12.5604 2.16667H8.73958V0.5H15.4062Z" fill="white"/>
</svg>
