<svg width="21" height="20" viewBox="0 0 21 20" fill="none" xmlns="http://www.w3.org/2000/svg">
<g clip-path="url(#clip0_531_13065)">
<path d="M20.542 5.88005C20.4951 4.81738 20.3233 4.0868 20.0771 3.45374C19.8231 2.78176 19.4324 2.18014 18.9206 1.68002C18.4204 1.1721 17.8148 0.777435 17.1506 0.527447C16.5139 0.281274 15.7872 0.109427 14.7245 0.0625732C13.6539 0.0117516 13.314 0 10.5986 0C7.88325 0 7.54337 0.0117516 6.47673 0.0586052C5.41405 0.105459 4.68347 0.277459 4.05057 0.523479C3.37844 0.777435 2.77682 1.16814 2.27669 1.68002C1.76878 2.18014 1.37427 2.78573 1.12413 3.44992C0.877954 4.0868 0.706106 4.81341 0.659253 5.87609C0.608431 6.9467 0.59668 7.28658 0.59668 10.002C0.59668 12.7173 0.608431 13.0572 0.655285 14.1239C0.702138 15.1865 0.874138 15.9171 1.12031 16.5502C1.37427 17.2221 1.76878 17.8238 2.27669 18.3239C2.77682 18.8318 3.38241 19.2265 4.0466 19.4765C4.68347 19.7226 5.41008 19.8945 6.47291 19.9413C7.5394 19.9883 7.87944 19.9999 10.5948 19.9999C13.3102 19.9999 13.6501 19.9883 14.7167 19.9413C15.7794 19.8945 16.51 19.7226 17.1429 19.4765C18.487 18.9568 19.5496 17.8941 20.0693 16.5502C20.3153 15.9133 20.4873 15.1865 20.5342 14.1239C20.581 13.0572 20.5928 12.7173 20.5928 10.002C20.5928 7.28658 20.5888 6.9467 20.542 5.88005ZM18.7409 14.0457C18.6979 15.0225 18.5338 15.5499 18.3971 15.9015C18.061 16.7728 17.3695 17.4643 16.4982 17.8004C16.1466 17.9372 15.6153 18.1012 14.6424 18.1441C13.5875 18.1911 13.2711 18.2027 10.6026 18.2027C7.93407 18.2027 7.61373 18.1911 6.56265 18.1441C5.5859 18.1012 5.05845 17.9372 4.70682 17.8004C4.27324 17.6402 3.87857 17.3862 3.55822 17.0541C3.22613 16.7298 2.97217 16.3391 2.81192 15.9055C2.67518 15.5539 2.51111 15.0225 2.46823 14.0497C2.42122 12.9948 2.40962 12.6783 2.40962 10.0097C2.40962 7.34122 2.42122 7.02087 2.46823 5.96995C2.51111 4.99319 2.67518 4.46575 2.81192 4.11412C2.97217 3.68038 3.22613 3.28586 3.56219 2.96536C3.88635 2.63327 4.27705 2.37931 4.71079 2.21921C5.06242 2.08247 5.59384 1.9184 6.56662 1.87537C7.62151 1.82851 7.93804 1.81676 10.6064 1.81676C13.2789 1.81676 13.5953 1.82851 14.6463 1.87537C15.6231 1.9184 16.1505 2.08247 16.5022 2.21921C16.9358 2.37931 17.3304 2.63327 17.6508 2.96536C17.9829 3.28967 18.2368 3.68038 18.3971 4.11412C18.5338 4.46575 18.6979 4.99701 18.7409 5.96995C18.7878 7.02484 18.7995 7.34122 18.7995 10.0097C18.7995 12.6783 18.7878 12.9908 18.7409 14.0457Z" fill="url(#paint0_linear_531_13065)"/>
<path d="M10.5996 4.86426C7.76324 4.86426 5.46191 7.16543 5.46191 10.002C5.46191 12.8385 7.76324 15.1397 10.5996 15.1397C13.4362 15.1397 15.7374 12.8385 15.7374 10.002C15.7374 7.16543 13.4362 4.86426 10.5996 4.86426ZM10.5996 13.3347C8.75952 13.3347 7.26692 11.8423 7.26692 10.002C7.26692 8.16172 8.75952 6.66927 10.5996 6.66927C12.4399 6.66927 13.9323 8.16172 13.9323 10.002C13.9323 11.8423 12.4399 13.3347 10.5996 13.3347Z" fill="url(#paint1_linear_531_13065)"/>
<path d="M17.1392 4.66085C17.1392 5.32321 16.6022 5.86028 15.9397 5.86028C15.2773 5.86028 14.7402 5.32321 14.7402 4.66085C14.7402 3.99834 15.2773 3.46143 15.9397 3.46143C16.6022 3.46143 17.1392 3.99834 17.1392 4.66085Z" fill="url(#paint2_linear_531_13065)"/>
</g>
<defs>
<linearGradient id="paint0_linear_531_13065" x1="10.5947" y1="0" x2="10.5947" y2="19.9999" gradientUnits="userSpaceOnUse">
<stop stop-color="#DC2A2A"/>
<stop offset="1" stop-color="#DC7F2A"/>
</linearGradient>
<linearGradient id="paint1_linear_531_13065" x1="10.5996" y1="4.86426" x2="10.5996" y2="15.1397" gradientUnits="userSpaceOnUse">
<stop stop-color="#DC2A2A"/>
<stop offset="1" stop-color="#DC7F2A"/>
</linearGradient>
<linearGradient id="paint2_linear_531_13065" x1="15.9397" y1="3.46143" x2="15.9397" y2="5.86028" gradientUnits="userSpaceOnUse">
<stop stop-color="#DC2A2A"/>
<stop offset="1" stop-color="#DC7F2A"/>
</linearGradient>
<clipPath id="clip0_531_13065">
<rect width="20" height="20" fill="white" transform="translate(0.5625)"/>
</clipPath>
</defs>
</svg>
