<svg width="20" height="18" viewBox="0 0 20 18" fill="none" xmlns="http://www.w3.org/2000/svg">
<path d="M18.3333 3.16654H14.1667V2.33318C14.1667 1.414 13.4192 0.666504 12.5 0.666504H7.5C6.58082 0.666504 5.83332 1.41396 5.83332 2.33318V3.1665H1.66668C0.747461 3.16654 0 3.914 0 4.83318V7.33318C0 8.2524 0.747461 8.99986 1.66668 8.99986H8.33336V8.58318C8.33336 8.35287 8.51973 8.1665 8.75004 8.1665H11.25C11.4804 8.1665 11.6667 8.35287 11.6667 8.58318V8.99986H18.3334C19.2525 8.99986 20 8.2524 20 7.33318V4.83318C20 3.914 19.2525 3.16654 18.3333 3.16654ZM12.5 3.16654H7.5V2.33318H12.5V3.16654Z" fill="#8B8596"/>
<path d="M19.7689 9.44928C19.6269 9.37889 19.4572 9.39518 19.3318 9.49037C19.0356 9.71459 18.6905 9.83299 18.3333 9.83299H11.6667V11.083C11.6667 11.3133 11.4803 11.4997 11.25 11.4997H8.75C8.51969 11.4997 8.33332 11.3133 8.33332 11.083V9.83299H1.66668C1.30941 9.83299 0.964375 9.71459 0.668125 9.49037C0.542383 9.39436 0.373125 9.37807 0.231094 9.44928C0.0895312 9.51971 0 9.66412 0 9.82244V15.6663C0 16.5855 0.747461 17.333 1.66668 17.333H18.3334C19.2525 17.333 20 16.5856 20 15.6663V9.82244C20 9.66412 19.9105 9.51971 19.7689 9.44928Z" fill="#8B8596"/>
</svg>
