<svg width="20" height="21" viewBox="0 0 20 21" fill="none" xmlns="http://www.w3.org/2000/svg">
<path fill-rule="evenodd" clip-rule="evenodd" d="M10 18.9435L6.90984 20.5L5.27996 17.3309L1.90984 16.6804L2.36281 13.1092L0 10.5L2.36281 7.89082L1.90984 4.31965L5.27996 3.6691L6.90984 0.5L10 2.05652L13.0902 0.5L14.72 3.6691L18.0902 4.31965L17.6372 7.89082L20 10.5L17.6372 13.1092L18.0902 16.6804L14.72 17.3309L13.0902 20.5L10 18.9435Z" fill="#692ADC"/>
<path fill-rule="evenodd" clip-rule="evenodd" d="M8.27437 11.6133L6.67969 10.0187L5.27344 11.4249L6.86813 13.0196L6.86566 13.022L8.27191 14.4283L8.27437 14.4259L8.2768 14.4283L9.68305 13.022L9.68062 13.0196L14.7002 8L13.2939 6.59375L8.27437 11.6133Z" fill="white"/>
</svg>
