<svg width="24" height="24" viewBox="0 0 24 24" fill="none" xmlns="http://www.w3.org/2000/svg">
<g clip-path="url(#clip0_226_6030)">
<path d="M12 24.0005C18.6274 24.0005 24 18.6279 24 12.0005C24 5.37307 18.6274 0.000488281 12 0.000488281C5.37258 0.000488281 0 5.37307 0 12.0005C0 18.6279 5.37258 24.0005 12 24.0005Z" fill="#FF4500"/>
<path d="M19.9992 12.0002C19.9992 11.0319 19.2133 10.2459 18.2449 10.2459C17.7677 10.2459 17.3466 10.4283 17.0378 10.7371C15.8449 9.88098 14.1887 9.31956 12.3642 9.24939L13.1642 5.50202L15.7606 6.04937C15.7887 6.70905 16.3361 7.24239 17.0097 7.24239C17.6975 7.24239 18.2589 6.68097 18.2589 5.99327C18.2589 5.30552 17.6975 4.74414 17.0097 4.74414C16.5185 4.74414 16.0975 5.02483 15.901 5.44586L12.9957 4.82833C12.9115 4.81431 12.8273 4.82833 12.7572 4.87042C12.687 4.91256 12.6448 4.98273 12.6168 5.06692L11.7326 9.24939C9.86591 9.30555 8.19575 9.85291 6.98872 10.7371C6.67995 10.4424 6.24486 10.2459 5.78169 10.2459C4.8133 10.2459 4.02734 11.0319 4.02734 12.0002C4.02734 12.716 4.44837 13.3195 5.06591 13.6003C5.03783 13.7687 5.02381 13.9511 5.02381 14.1336C5.02381 16.8283 8.15366 19.0037 12.0273 19.0037C15.901 19.0037 19.0308 16.8283 19.0308 14.1336C19.0308 13.9511 19.0168 13.7827 18.9887 13.6143C19.5642 13.3336 19.9992 12.716 19.9992 12.0002ZM7.99925 13.2494C7.99925 12.5617 8.56067 12.0002 9.24837 12.0002C9.93608 12.0002 10.4975 12.5617 10.4975 13.2494C10.4975 13.9371 9.93608 14.4985 9.24837 14.4985C8.56067 14.4985 7.99925 13.9371 7.99925 13.2494ZM14.9747 16.5476C14.1185 17.4038 12.4905 17.4599 12.0133 17.4599C11.5361 17.4599 9.89398 17.3897 9.05187 16.5476C8.92555 16.4213 8.92555 16.2108 9.05187 16.0845C9.1782 15.9581 9.38872 15.9581 9.51505 16.0845C10.0484 16.6178 11.1993 16.8143 12.0273 16.8143C12.8554 16.8143 13.9922 16.6178 14.5396 16.0845C14.6659 15.9581 14.8764 15.9581 15.0027 16.0845C15.101 16.2248 15.101 16.4213 14.9747 16.5476ZM14.7501 14.4985C14.0624 14.4985 13.501 13.9371 13.501 13.2494C13.501 12.5617 14.0624 12.0002 14.7501 12.0002C15.4378 12.0002 15.9993 12.5617 15.9993 13.2494C15.9993 13.9371 15.4378 14.4985 14.7501 14.4985Z" fill="white"/>
</g>
<defs>
<clipPath id="clip0_226_6030">
<rect width="24" height="24" fill="white"/>
</clipPath>
</defs>
</svg>
