<svg width="24" height="20" viewBox="0 0 24 20" fill="none" xmlns="http://www.w3.org/2000/svg">
<path d="M23.996 2.55775C23.1132 2.95 22.1652 3.21475 21.1684 3.3325C22.1847 2.7235 22.9655 1.759 23.3337 0.61C22.382 1.17325 21.3289 1.58425 20.2077 1.804C19.3092 0.84775 18.0297 0.25 16.613 0.25C13.8942 0.25 11.6915 2.4535 11.6915 5.17225C11.6915 5.55775 11.7342 5.93425 11.8182 6.29425C7.72695 6.08875 4.09995 4.129 1.67145 1.15075C1.24845 1.87825 1.00545 2.7235 1.00545 3.62575C1.00545 5.33425 1.8747 6.84025 3.1947 7.72375C2.38845 7.6975 1.62945 7.477 0.965703 7.108C0.964953 7.12825 0.964953 7.15 0.964953 7.1695C0.964953 9.55525 2.66145 11.545 4.9137 11.9972C4.5012 12.109 4.0662 12.1698 3.61695 12.1698C3.29895 12.1698 2.99145 12.139 2.69145 12.082C3.31695 14.0365 5.1357 15.46 7.28895 15.5005C5.6052 16.8205 3.4827 17.6087 1.17645 17.6087C0.778953 17.6087 0.386703 17.5855 0.00195312 17.5397C2.17995 18.9347 4.76745 19.75 7.5477 19.75C16.6017 19.75 21.5539 12.2492 21.5539 5.74375C21.5539 5.53075 21.5479 5.31775 21.5389 5.10625C22.5012 4.4125 23.3352 3.54625 23.996 2.55775Z" fill="#55ACEE"/>
</svg>
