<svg width="21" height="18" viewBox="0 0 21 18" fill="none" xmlns="http://www.w3.org/2000/svg">
<path d="M20.3945 2.79875C19.6508 3.125 18.8583 3.34125 18.032 3.44625C18.882 2.93875 19.5308 2.14125 19.8358 1.18C19.0433 1.6525 18.1683 1.98625 17.2358 2.1725C16.4833 1.37125 15.4108 0.875 14.2408 0.875C11.9708 0.875 10.1433 2.7175 10.1433 4.97625C10.1433 5.30125 10.1708 5.61375 10.2383 5.91125C6.82953 5.745 3.81328 4.11125 1.78703 1.6225C1.43328 2.23625 1.22578 2.93875 1.22578 3.695C1.22578 5.115 1.95703 6.37375 3.04703 7.1025C2.38828 7.09 1.74203 6.89875 1.19453 6.5975C1.19453 6.61 1.19453 6.62625 1.19453 6.6425C1.19453 8.635 2.61578 10.29 4.47953 10.6712C4.14578 10.7625 3.78203 10.8062 3.40453 10.8062C3.14203 10.8062 2.87703 10.7913 2.62828 10.7362C3.15953 12.36 4.66703 13.5538 6.45953 13.5925C5.06453 14.6838 3.29328 15.3412 1.37578 15.3412C1.03953 15.3412 0.717031 15.3263 0.394531 15.285C2.21078 16.4563 4.36328 17.125 6.68453 17.125C14.2295 17.125 18.3545 10.875 18.3545 5.4575C18.3545 5.27625 18.3483 5.10125 18.3395 4.9275C19.1533 4.35 19.837 3.62875 20.3945 2.79875Z" fill="#0788F5"/>
</svg>
